<svg xmlns="http://www.w3.org/2000/svg" xmlns:xlink="http://www.w3.org/1999/xlink" width="500" zoomAndPan="magnify" viewBox="0 0 375 374.999991" height="500" preserveAspectRatio="xMidYMid meet" version="1.0"><defs><clipPath id="58b31ab537"><path d="M 112.5 115.34375 L 262.5 115.34375 L 262.5 259.34375 L 112.5 259.34375 Z M 112.5 115.34375 " clip-rule="nonzero"/></clipPath></defs><g clip-path="url(#58b31ab537)"><path fill="#ffffff" d="M 188.519531 259.34375 C 225.679688 259.34375 262.429688 235.304688 262.429688 187.304688 C 262.429688 139.628906 229.027344 115.34375 188.519531 115.34375 C 145.320312 115.34375 112.570312 150.710938 112.570312 187.304688 C 112.570312 221.613281 150.628906 259.34375 188.519531 259.34375 Z M 188.519531 259.34375 " fill-opacity="1" fill-rule="nonzero"/></g><path fill="#000000" d="M 148.503906 181.433594 C 147.035156 181.761719 146.136719 181.433594 145.890625 180.292969 C 145.726562 179.722656 145.808594 179.070312 146.054688 178.339844 C 146.300781 177.605469 146.707031 176.953125 147.199219 176.300781 C 147.6875 175.648438 148.257812 175.160156 148.914062 174.671875 C 149.566406 174.183594 150.21875 173.9375 150.789062 173.773438 C 151.363281 173.613281 151.851562 173.695312 152.261719 173.855469 C 152.507812 173.855469 152.667969 174.019531 152.667969 174.265625 C 152.667969 174.425781 152.667969 174.507812 152.667969 174.671875 C 152.585938 174.996094 152.425781 175.078125 152.015625 174.914062 C 151.769531 174.753906 151.363281 174.753906 150.953125 174.835938 C 150.054688 175.078125 149.15625 175.648438 148.421875 176.628906 C 147.6875 177.605469 147.117188 178.5 146.871094 179.316406 C 146.871094 179.480469 146.871094 179.480469 146.789062 179.5625 L 146.871094 179.886719 C 146.789062 180.457031 147.117188 180.703125 147.851562 180.703125 L 148.175781 180.621094 C 148.339844 180.621094 148.75 180.457031 149.402344 180.132812 C 150.136719 179.722656 150.871094 179.316406 151.609375 178.828125 C 152.34375 178.339844 153.078125 177.769531 153.894531 177.277344 C 155.199219 176.464844 156.507812 175.566406 157.734375 174.671875 C 159.039062 173.773438 160.265625 173.042969 161.40625 172.308594 C 161.570312 172.308594 161.652344 172.226562 161.570312 172.144531 C 161.734375 172.144531 161.816406 172.0625 161.734375 172.0625 C 161.734375 172.0625 161.734375 171.980469 161.816406 171.980469 L 161.898438 171.980469 C 161.980469 171.902344 162.0625 171.820312 162.304688 171.820312 C 162.46875 171.820312 162.550781 171.820312 162.632812 171.902344 C 162.714844 171.980469 162.714844 172.144531 162.632812 172.226562 C 162.550781 172.308594 162.46875 172.390625 162.304688 172.472656 L 162.222656 172.472656 C 162.0625 172.472656 161.570312 172.796875 160.753906 173.285156 C 159.9375 173.855469 159.039062 174.425781 158.058594 175.160156 C 157.078125 175.894531 156.179688 176.546875 155.363281 177.117188 C 154.464844 177.6875 153.976562 178.09375 153.730469 178.339844 C 152.667969 179.152344 151.6875 179.804688 150.953125 180.292969 C 150.136719 180.785156 149.402344 181.109375 148.75 181.355469 Z M 148.503906 181.433594 " fill-opacity="1" fill-rule="nonzero"/><path fill="#000000" d="M 178.882812 170.1875 C 178.640625 170.839844 178.066406 171.902344 177.167969 173.367188 C 176.269531 174.835938 175.210938 176.300781 174.066406 177.851562 C 172.921875 179.398438 171.699219 180.785156 170.472656 182.007812 C 169.246094 183.226562 168.1875 183.960938 167.371094 184.125 C 166.308594 184.371094 165.492188 184.207031 164.917969 183.636719 C 164.347656 183.066406 163.9375 182.414062 163.613281 181.679688 C 163.285156 180.785156 163.039062 179.96875 162.878906 179.152344 C 162.796875 178.339844 162.714844 177.6875 162.714844 177.035156 C 162.714844 176.058594 162.714844 175.242188 162.714844 174.589844 C 162.714844 173.9375 162.796875 173.285156 162.878906 172.632812 C 162.960938 172.308594 162.960938 172.0625 162.878906 171.980469 C 162.796875 171.902344 162.714844 171.980469 162.632812 172.0625 L 161.898438 172.226562 C 161.246094 172.390625 160.753906 172.390625 160.425781 172.144531 C 160.183594 171.980469 160.101562 171.820312 160.101562 171.738281 C 160.183594 171.574219 160.425781 171.574219 160.589844 171.574219 C 160.917969 171.65625 161.164062 171.65625 161.40625 171.574219 C 162.140625 171.410156 162.550781 171.085938 162.796875 170.679688 C 163.039062 170.269531 163.203125 169.78125 163.285156 169.210938 C 163.53125 167.582031 163.859375 165.707031 164.429688 163.589844 C 165 161.46875 165.734375 159.1875 166.632812 156.824219 C 167.53125 154.460938 168.511719 152.097656 169.738281 149.816406 C 170.878906 147.453125 172.105469 145.332031 173.496094 143.378906 C 174.882812 141.421875 176.269531 139.792969 177.824219 138.40625 C 179.375 137.019531 180.925781 136.125 182.558594 135.71875 C 183.785156 135.390625 184.765625 135.472656 185.417969 136.042969 C 186.070312 136.613281 186.316406 137.429688 186.234375 138.40625 C 186.152344 139.464844 185.746094 140.851562 184.847656 142.726562 C 183.949219 144.519531 182.886719 146.554688 181.578125 148.675781 C 180.273438 150.792969 178.800781 152.992188 177.25 155.277344 C 175.699219 157.558594 174.066406 159.675781 172.515625 161.714844 C 170.960938 163.75 169.492188 165.542969 168.105469 167.09375 C 166.714844 168.640625 165.652344 169.699219 164.757812 170.433594 C 164.265625 170.921875 164.019531 171.25 164.019531 171.492188 C 163.859375 172.878906 163.777344 174.34375 163.777344 175.730469 C 163.777344 177.117188 163.9375 178.5 164.183594 179.804688 C 164.347656 181.027344 164.757812 182.007812 165.410156 182.65625 C 165.898438 183.148438 166.472656 183.308594 167.125 183.148438 C 167.941406 182.984375 168.839844 182.332031 169.984375 181.191406 C 171.125 180.050781 172.1875 178.746094 173.25 177.359375 C 174.3125 175.894531 175.289062 174.507812 176.269531 173.121094 C 177.167969 171.738281 177.902344 170.679688 178.3125 169.945312 C 178.394531 169.863281 178.476562 169.78125 178.722656 169.78125 C 178.882812 169.78125 178.964844 169.945312 178.882812 170.1875 Z M 164.429688 169.457031 C 165.328125 168.476562 166.472656 167.175781 167.859375 165.542969 C 169.246094 163.914062 170.71875 162.039062 172.351562 160.082031 C 173.902344 158.128906 175.535156 156.007812 177.085938 153.808594 C 178.722656 151.609375 180.109375 149.488281 181.335938 147.453125 C 182.558594 145.414062 183.539062 143.621094 184.273438 141.910156 C 185.007812 140.28125 185.335938 138.894531 185.253906 137.917969 C 185.171875 137.019531 184.683594 136.53125 183.703125 136.53125 C 183.539062 136.53125 183.292969 136.53125 182.804688 136.613281 C 182.3125 136.695312 181.90625 136.859375 181.660156 137.101562 C 179.539062 138.160156 177.496094 139.953125 175.535156 142.398438 C 173.574219 144.925781 171.859375 147.695312 170.390625 150.710938 C 168.921875 153.726562 167.613281 156.742188 166.632812 159.675781 C 165.574219 162.691406 164.917969 165.21875 164.59375 167.253906 C 164.429688 167.988281 164.347656 168.476562 164.265625 168.722656 C 164.265625 169.046875 164.347656 169.292969 164.429688 169.457031 Z M 164.429688 169.457031 " fill-opacity="1" fill-rule="nonzero"/><path fill="#000000" d="M 183.292969 171.332031 C 183.703125 170.921875 184.109375 170.515625 184.601562 170.109375 C 185.007812 169.699219 185.5 169.292969 185.988281 168.886719 C 186.070312 168.722656 186.152344 168.640625 186.234375 168.640625 C 186.722656 168.152344 187.050781 167.746094 187.296875 167.582031 C 187.378906 167.417969 187.460938 167.335938 187.539062 167.253906 C 187.621094 167.175781 187.621094 167.175781 187.703125 167.09375 L 187.949219 166.765625 C 188.113281 166.683594 188.195312 166.601562 188.195312 166.523438 C 188.277344 166.441406 188.277344 166.359375 188.359375 166.359375 L 188.519531 166.113281 C 188.765625 165.789062 188.929688 165.707031 189.175781 165.871094 L 189.335938 165.871094 C 189.335938 166.03125 189.335938 166.03125 189.335938 166.113281 C 189.335938 166.113281 189.335938 166.195312 189.335938 166.359375 L 189.253906 166.441406 C 189.175781 166.601562 189.011719 166.765625 188.929688 167.011719 C 188.847656 167.175781 188.519531 167.5 188.03125 167.988281 L 187.703125 168.316406 C 186.886719 169.210938 185.988281 170.027344 185.171875 170.921875 C 184.273438 171.738281 183.457031 172.632812 182.558594 173.449219 C 182.070312 173.773438 181.742188 174.101562 181.335938 174.507812 C 180.273438 175.40625 179.457031 175.894531 178.800781 175.976562 L 178.558594 176.058594 C 177.660156 176.300781 177.085938 175.976562 176.84375 175.078125 L 176.761719 174.914062 C 176.679688 174.425781 176.679688 173.855469 176.84375 173.121094 C 177.003906 172.390625 177.25 171.574219 177.578125 170.839844 C 177.902344 170.027344 178.230469 169.375 178.558594 168.722656 C 178.964844 168.070312 179.292969 167.664062 179.699219 167.335938 L 179.78125 167.335938 C 180.027344 167.253906 180.191406 167.335938 180.273438 167.417969 L 180.4375 168.070312 L 180.355469 168.152344 L 180.355469 168.234375 C 179.539062 169.210938 178.964844 170.109375 178.640625 171.085938 C 178.3125 172.0625 178.066406 172.878906 177.984375 173.695312 C 177.902344 174.671875 178.066406 175.078125 178.558594 174.996094 C 178.640625 174.996094 178.722656 174.914062 178.722656 174.914062 C 178.800781 174.835938 178.882812 174.835938 179.046875 174.835938 C 179.699219 174.507812 180.355469 174.019531 181.007812 173.449219 C 181.660156 172.878906 182.394531 172.144531 183.292969 171.332031 Z M 181.414062 163.75 C 181.335938 163.667969 181.253906 163.589844 181.171875 163.507812 C 181.007812 163.34375 180.925781 163.179688 180.925781 163.019531 C 180.925781 162.855469 181.007812 162.691406 181.007812 162.527344 C 181.171875 162.121094 181.253906 161.875 181.414062 161.632812 C 181.578125 161.386719 181.824219 161.226562 182.152344 161.144531 C 182.394531 161.0625 182.558594 161.144531 182.640625 161.304688 C 182.722656 161.46875 182.558594 161.796875 182.394531 162.121094 C 182.152344 162.527344 181.988281 162.855469 182.070312 163.179688 C 182.152344 163.507812 182.070312 163.667969 181.742188 163.75 C 181.660156 163.75 181.496094 163.75 181.414062 163.75 Z M 181.414062 163.75 " fill-opacity="1" fill-rule="nonzero"/><path fill="#000000" d="M 188.765625 172.144531 C 187.296875 172.472656 186.398438 172.144531 186.152344 171.003906 C 185.988281 170.433594 186.070312 169.78125 186.316406 169.046875 C 186.5625 168.316406 186.96875 167.664062 187.460938 167.011719 C 187.949219 166.359375 188.519531 165.871094 189.175781 165.382812 C 189.828125 164.890625 190.480469 164.648438 191.050781 164.484375 C 191.625 164.320312 192.113281 164.402344 192.523438 164.566406 C 192.765625 164.566406 192.929688 164.730469 192.929688 164.972656 C 192.929688 165.136719 192.929688 165.21875 192.929688 165.382812 C 192.847656 165.707031 192.6875 165.789062 192.277344 165.625 C 191.949219 165.460938 191.542969 165.382812 191.132812 165.460938 C 190.234375 165.707031 189.335938 166.277344 188.601562 167.253906 C 187.867188 168.234375 187.296875 169.128906 187.050781 169.945312 C 187.050781 170.109375 187.050781 170.109375 186.96875 170.1875 L 187.050781 170.515625 C 186.96875 171.085938 187.296875 171.332031 188.03125 171.332031 L 188.359375 171.25 C 188.519531 171.25 188.929688 171.085938 189.582031 170.757812 C 190.316406 170.351562 191.050781 169.945312 191.789062 169.457031 C 192.523438 168.96875 193.257812 168.394531 194.074219 167.90625 C 195.378906 167.09375 196.6875 166.195312 197.914062 165.300781 C 199.21875 164.402344 200.445312 163.667969 201.585938 162.9375 C 201.75 162.9375 201.832031 162.855469 201.75 162.773438 C 201.914062 162.773438 201.996094 162.691406 201.914062 162.691406 C 201.914062 162.691406 201.914062 162.609375 201.996094 162.609375 L 202.078125 162.609375 C 202.160156 162.527344 202.242188 162.449219 202.484375 162.449219 C 202.648438 162.449219 202.730469 162.449219 202.8125 162.527344 C 202.894531 162.609375 202.894531 162.773438 202.8125 162.855469 C 202.730469 162.9375 202.648438 163.019531 202.484375 163.097656 L 202.402344 163.097656 C 202.242188 163.097656 201.75 163.425781 200.933594 163.914062 C 200.117188 164.484375 199.21875 165.054688 198.238281 165.789062 C 197.257812 166.523438 196.359375 167.175781 195.542969 167.746094 C 194.644531 168.316406 194.15625 168.722656 193.910156 168.96875 C 192.847656 169.78125 191.867188 170.433594 191.132812 170.921875 C 190.316406 171.410156 189.582031 171.738281 188.929688 171.980469 Z M 188.765625 172.144531 " fill-opacity="1" fill-rule="nonzero"/><path fill="#000000" d="M 205.835938 153.074219 C 206.242188 152.015625 206.976562 150.46875 207.875 148.347656 C 208.855469 146.230469 209.917969 143.949219 211.140625 141.339844 C 212.367188 138.8125 213.753906 136.125 215.144531 133.355469 C 216.53125 130.582031 218.003906 128.058594 219.472656 125.855469 C 220.941406 123.65625 222.332031 121.617188 223.71875 120.070312 C 225.105469 118.523438 226.332031 117.625 227.394531 117.382812 C 228.457031 117.136719 229.027344 117.625 229.027344 118.765625 C 229.109375 119.335938 229.027344 119.824219 228.863281 120.316406 C 228.699219 120.804688 228.539062 121.292969 228.292969 121.863281 L 228.210938 122.109375 L 228.046875 122.351562 C 227.148438 124.472656 225.925781 126.835938 224.371094 129.523438 C 222.820312 132.132812 221.105469 134.820312 219.390625 137.429688 C 217.59375 140.035156 215.878906 142.5625 214.164062 144.925781 C 212.449219 147.371094 210.898438 149.410156 209.507812 151.121094 C 208.367188 152.585938 207.550781 153.726562 206.894531 154.542969 C 206.324219 155.355469 205.835938 156.089844 205.34375 156.742188 C 205.097656 157.070312 204.9375 157.394531 204.773438 157.71875 C 204.609375 158.046875 204.445312 158.453125 204.28125 158.941406 C 203.957031 160.003906 203.464844 161.226562 202.894531 162.449219 C 202.566406 163.261719 202.242188 164.160156 201.914062 165.054688 C 201.585938 165.953125 201.179688 166.847656 200.851562 167.746094 C 200.851562 167.824219 200.851562 167.90625 200.6875 168.070312 L 200.769531 168.234375 C 200.609375 168.476562 200.609375 168.640625 200.769531 168.722656 C 200.933594 168.804688 201.097656 168.804688 201.179688 168.640625 C 201.34375 168.558594 201.503906 168.476562 201.832031 168.394531 C 201.996094 168.394531 202.078125 168.394531 202.160156 168.394531 C 202.242188 168.394531 202.324219 168.394531 202.484375 168.394531 C 202.566406 168.476562 202.730469 168.476562 202.894531 168.394531 C 203.140625 168.316406 203.382812 168.152344 203.710938 167.90625 L 211.550781 160.003906 C 211.632812 159.839844 211.796875 159.675781 211.960938 159.59375 C 212.121094 159.433594 212.285156 159.351562 212.367188 159.269531 L 212.613281 158.941406 C 212.9375 158.699219 213.183594 158.535156 213.347656 158.292969 C 213.675781 158.046875 213.917969 157.882812 214.082031 157.640625 C 214.164062 157.640625 214.164062 157.558594 214.246094 157.558594 C 214.246094 157.558594 214.328125 157.476562 214.410156 157.476562 C 214.574219 157.394531 214.734375 157.3125 214.898438 157.230469 C 215.0625 157.230469 215.144531 157.230469 215.226562 157.3125 C 215.308594 157.394531 215.144531 157.640625 214.734375 158.046875 C 214.082031 158.78125 213.429688 159.433594 212.695312 160.164062 C 212.039062 160.898438 211.304688 161.550781 210.652344 162.285156 L 210.488281 162.449219 C 210.164062 162.691406 209.917969 163.019531 209.671875 163.261719 C 209.425781 163.589844 209.183594 163.832031 208.855469 164.078125 C 208.367188 164.648438 207.710938 165.300781 207.058594 166.03125 C 206.40625 166.765625 205.753906 167.335938 205.179688 167.90625 C 204.609375 168.394531 204.691406 168.640625 205.261719 168.804688 C 206.40625 169.128906 207.550781 169.210938 208.773438 168.886719 C 209.507812 168.722656 210.40625 168.316406 211.550781 167.746094 C 212.121094 167.417969 212.859375 166.929688 213.59375 166.441406 C 214.328125 165.871094 215.308594 165.136719 216.53125 164.238281 C 216.695312 164.160156 216.695312 164.078125 216.777344 163.996094 C 216.777344 163.996094 216.859375 163.914062 217.023438 163.75 C 217.105469 163.75 217.1875 163.667969 217.1875 163.589844 C 217.265625 163.507812 217.265625 163.425781 217.347656 163.425781 C 217.347656 163.425781 217.429688 163.34375 217.511719 163.261719 L 218.65625 162.367188 C 220.453125 160.898438 222.003906 159.511719 223.3125 158.128906 C 223.390625 157.964844 223.554688 157.882812 223.800781 157.882812 C 223.964844 158.046875 223.964844 158.210938 223.800781 158.453125 C 223.472656 158.941406 223.230469 159.269531 223.066406 159.433594 C 222.003906 160.328125 220.941406 161.226562 219.878906 162.121094 C 218.820312 163.019531 217.757812 163.914062 216.695312 164.8125 L 215.960938 165.382812 C 214.898438 166.277344 213.835938 167.09375 212.695312 167.824219 C 211.550781 168.558594 210.324219 169.128906 209.019531 169.457031 C 208.367188 169.617188 207.792969 169.699219 207.304688 169.617188 C 206.8125 169.617188 206.242188 169.539062 205.589844 169.539062 L 205.425781 169.457031 C 205.34375 169.457031 205.261719 169.457031 205.179688 169.375 L 204.445312 169.210938 C 204.117188 169.128906 203.875 169.128906 203.792969 169.128906 C 203.222656 169.292969 202.730469 169.617188 202.242188 170.1875 C 201.832031 170.597656 201.425781 171.003906 200.933594 171.332031 C 200.527344 171.65625 200.117188 171.902344 199.871094 172.0625 C 199.382812 172.550781 199.054688 172.796875 198.890625 172.960938 C 198.730469 173.121094 198.648438 173.367188 198.566406 173.53125 C 197.832031 175.648438 197.097656 177.6875 196.359375 179.640625 C 195.707031 181.597656 195.054688 183.472656 194.5625 185.019531 C 194.238281 186 194.074219 186.734375 193.992188 187.222656 C 193.910156 187.710938 193.828125 188.117188 193.746094 188.445312 C 193.503906 189.257812 193.421875 189.746094 193.585938 189.992188 C 193.828125 190.238281 193.746094 190.398438 193.339844 190.480469 C 193.09375 190.5625 192.847656 190.480469 192.847656 190.15625 C 192.765625 189.828125 192.847656 189.257812 193.011719 188.445312 C 193.175781 187.628906 193.421875 186.734375 193.664062 185.753906 C 193.910156 184.777344 194.238281 183.796875 194.5625 182.820312 C 194.890625 181.84375 195.136719 181.027344 195.378906 180.375 C 195.542969 179.886719 195.707031 179.640625 195.789062 179.5625 L 195.953125 178.828125 C 196.199219 178.421875 196.277344 178.175781 196.199219 178.011719 L 196.277344 177.929688 C 196.441406 177.6875 196.523438 177.523438 196.441406 177.359375 C 196.523438 177.117188 196.6875 176.628906 196.851562 175.894531 C 197.015625 175.160156 197.257812 174.507812 197.503906 174.019531 C 197.667969 173.53125 197.585938 173.285156 197.257812 173.121094 C 196.6875 172.960938 196.6875 172.472656 197.175781 171.492188 C 197.257812 171.332031 197.421875 171.085938 197.667969 170.757812 C 197.914062 170.433594 198.15625 170.109375 198.566406 169.863281 C 198.890625 169.539062 199.21875 169.128906 199.382812 168.640625 C 199.628906 167.824219 199.871094 167.09375 200.199219 166.277344 C 200.445312 165.542969 200.769531 164.8125 201.015625 164.160156 C 201.179688 163.667969 201.34375 163.261719 201.503906 162.855469 C 201.585938 162.449219 201.75 162.039062 201.996094 161.632812 C 202.160156 161.144531 202.324219 160.816406 202.402344 160.492188 L 202.484375 160.410156 C 202.566406 160.082031 202.566406 159.921875 202.484375 159.839844 C 201.914062 160.492188 201.34375 161.144531 200.6875 161.796875 C 200.117188 162.449219 199.382812 163.097656 198.566406 163.667969 L 198.484375 163.75 C 198.402344 163.75 198.320312 163.832031 198.320312 163.832031 C 198.238281 163.914062 198.15625 163.914062 197.996094 163.914062 C 197.914062 163.914062 197.832031 163.914062 197.667969 163.832031 C 197.585938 163.667969 197.667969 163.425781 197.914062 163.179688 L 197.996094 163.179688 L 198.402344 162.855469 L 198.566406 162.691406 C 198.8125 162.527344 199.054688 162.285156 199.300781 161.957031 C 199.546875 161.632812 199.871094 161.304688 200.117188 160.898438 L 200.445312 160.492188 C 200.609375 160.410156 200.6875 160.246094 200.769531 160.082031 L 201.179688 159.511719 C 201.34375 159.433594 201.425781 159.351562 201.425781 159.269531 C 201.503906 159.1875 201.585938 159.105469 201.667969 159.023438 L 201.914062 158.699219 C 202.566406 157.800781 203.222656 156.90625 203.792969 155.929688 C 204.855469 155.195312 205.34375 154.136719 205.835938 153.074219 Z M 201.585938 169.375 C 201.179688 169.375 200.851562 169.539062 200.445312 169.863281 C 200.035156 170.1875 199.871094 170.515625 199.789062 170.839844 C 199.546875 170.921875 199.546875 171.003906 199.871094 171.003906 L 200.117188 170.921875 C 200.445312 170.679688 200.6875 170.433594 201.015625 170.1875 C 201.261719 169.945312 201.585938 169.617188 201.832031 169.210938 Z M 225.597656 125.121094 C 225.761719 124.714844 226.085938 124.308594 226.414062 123.738281 C 226.742188 123.167969 227.066406 122.597656 227.3125 121.945312 C 227.640625 121.292969 227.800781 120.640625 227.964844 120.070312 C 228.128906 119.417969 228.128906 118.929688 228.046875 118.601562 C 227.964844 118.441406 227.882812 118.359375 227.640625 118.359375 C 226.824219 118.523438 225.84375 119.417969 224.453125 121.046875 C 223.148438 122.679688 221.675781 124.714844 220.207031 127.078125 C 218.65625 129.441406 217.1875 132.050781 215.714844 134.820312 C 214.246094 137.589844 212.859375 140.199219 211.632812 142.5625 C 210.40625 144.925781 209.425781 146.964844 208.773438 148.675781 C 208.039062 150.386719 207.710938 151.363281 207.792969 151.609375 C 209.265625 149.410156 210.816406 147.207031 212.449219 145.007812 C 214.082031 142.808594 215.714844 140.445312 217.511719 137.835938 C 218.738281 136.042969 220.042969 134.085938 221.515625 132.050781 C 222.820312 129.929688 224.210938 127.648438 225.597656 125.121094 Z M 225.597656 125.121094 " fill-opacity="1" fill-rule="nonzero"/><path fill="#000000" d="M 169.902344 188.769531 C 170.390625 189.175781 170.390625 189.746094 169.902344 190.726562 C 169.246094 192.109375 168.105469 193.902344 166.390625 196.105469 C 164.675781 198.304688 162.796875 200.667969 160.753906 203.113281 C 158.710938 205.558594 156.671875 207.839844 154.628906 209.957031 C 152.585938 212.078125 150.953125 213.707031 149.8125 214.929688 C 149.15625 215.582031 148.667969 215.988281 148.503906 216.234375 C 148.339844 216.476562 148.175781 216.722656 148.097656 216.96875 C 147.359375 218.351562 146.707031 219.738281 146.054688 221.121094 C 145.402344 222.507812 144.746094 223.894531 144.175781 225.359375 L 144.09375 225.769531 C 143.929688 225.769531 143.929688 225.851562 144.175781 225.929688 C 144.257812 225.929688 144.257812 225.851562 144.257812 225.851562 L 144.339844 225.769531 C 144.992188 225.035156 145.484375 224.546875 145.726562 224.136719 C 146.054688 223.8125 146.460938 223.324219 147.035156 222.671875 C 147.605469 222.019531 148.175781 221.367188 148.832031 220.714844 C 149.484375 220.0625 150.136719 219.492188 150.789062 218.921875 C 151.445312 218.433594 151.933594 218.027344 152.34375 217.863281 C 152.667969 217.78125 153.078125 217.78125 153.402344 217.945312 C 153.730469 218.109375 154.058594 218.351562 154.300781 218.757812 C 154.382812 218.839844 154.464844 219.003906 154.546875 219.167969 C 154.546875 219.332031 154.628906 219.492188 154.792969 219.574219 C 155.28125 221.121094 156.261719 221.773438 157.570312 221.449219 C 158.222656 221.285156 158.957031 221.042969 159.855469 220.632812 C 160.753906 220.226562 161.570312 219.820312 162.46875 219.332031 C 163.285156 218.839844 164.101562 218.351562 164.917969 217.78125 C 165.652344 217.210938 166.308594 216.804688 166.796875 216.394531 L 167.042969 216.070312 C 167.125 216.070312 167.207031 215.988281 167.207031 215.90625 C 167.613281 215.582031 167.941406 215.335938 168.023438 215.011719 C 168.105469 215.011719 168.105469 215.011719 168.105469 214.929688 C 168.105469 214.929688 168.105469 214.847656 168.1875 214.847656 C 168.265625 214.523438 168.429688 214.523438 168.675781 214.601562 C 168.921875 214.683594 168.921875 214.929688 168.59375 215.335938 C 168.1875 216.070312 167.613281 216.722656 166.878906 217.375 C 166.144531 218.027344 165.328125 218.597656 164.429688 219.167969 C 163.53125 219.738281 162.632812 220.226562 161.734375 220.714844 C 160.835938 221.203125 160.019531 221.613281 159.285156 221.855469 L 158.875 221.9375 C 158.46875 222.183594 158.140625 222.34375 157.734375 222.425781 C 156.671875 222.671875 155.773438 222.589844 155.039062 222.101562 C 154.300781 221.613281 153.8125 220.878906 153.648438 219.902344 C 153.566406 219.820312 153.484375 219.738281 153.484375 219.65625 L 153.402344 219.492188 C 153.242188 219.085938 152.996094 218.839844 152.667969 218.921875 C 152.015625 219.085938 151.117188 219.738281 149.972656 220.796875 C 148.832031 221.9375 147.6875 223.160156 146.542969 224.546875 C 145.402344 225.929688 144.339844 227.316406 143.359375 228.621094 C 142.378906 229.925781 141.808594 230.902344 141.480469 231.554688 C 141.316406 231.796875 141.234375 231.960938 141.152344 231.960938 C 140.992188 231.960938 140.910156 231.960938 140.828125 231.960938 C 140.5 231.796875 140.5 231.472656 140.828125 230.984375 C 140.828125 230.820312 140.910156 230.738281 140.992188 230.578125 C 141.074219 230.496094 141.152344 230.25 141.234375 230.085938 L 141.316406 230.007812 C 141.316406 229.925781 141.316406 229.925781 141.316406 229.925781 C 141.316406 229.925781 141.398438 229.84375 141.316406 229.84375 L 141.398438 229.761719 C 141.480469 229.433594 141.5625 229.191406 141.726562 228.945312 C 141.890625 228.703125 141.972656 228.375 142.132812 228.050781 C 142.378906 227.398438 142.625 226.664062 142.949219 225.929688 C 143.277344 225.199219 143.605469 224.382812 144.011719 223.488281 L 144.175781 223.242188 C 144.339844 222.914062 144.503906 222.589844 144.664062 222.101562 C 144.828125 221.613281 145.074219 221.042969 145.320312 220.550781 C 145.5625 220.0625 145.808594 219.574219 146.054688 219.003906 L 145.808594 219.085938 C 145.644531 219.085938 145.484375 219.25 145.15625 219.574219 C 145.074219 219.574219 144.992188 219.65625 144.910156 219.820312 C 144.828125 219.820312 144.664062 219.902344 144.421875 220.144531 L 143.769531 220.714844 C 143.6875 220.878906 143.523438 220.878906 143.359375 220.796875 C 143.195312 220.632812 143.195312 220.472656 143.359375 220.308594 C 143.605469 219.980469 143.769531 219.738281 143.929688 219.574219 L 145.320312 218.351562 C 145.972656 217.617188 146.542969 216.96875 147.117188 216.394531 C 147.6875 215.824219 148.175781 215.09375 148.585938 214.195312 C 149.8125 211.914062 151.117188 209.714844 152.507812 207.433594 C 153.894531 205.230469 155.363281 203.03125 156.914062 200.914062 L 157.488281 200.097656 C 158.058594 199.363281 158.792969 198.386719 159.609375 197.164062 C 160.507812 195.941406 161.488281 194.800781 162.550781 193.660156 C 163.613281 192.519531 164.675781 191.460938 165.816406 190.5625 C 166.960938 189.667969 168.023438 189.097656 169.003906 188.851562 C 169.164062 188.445312 169.492188 188.527344 169.902344 188.769531 Z M 168.675781 190.480469 C 168.921875 190.074219 169.003906 189.828125 168.839844 189.746094 C 168.757812 189.667969 168.675781 189.667969 168.511719 189.746094 C 167.859375 189.910156 167.042969 190.480469 165.980469 191.460938 C 164.917969 192.4375 163.777344 193.660156 162.46875 195.125 C 161.246094 196.59375 159.9375 198.140625 158.632812 199.851562 C 157.324219 201.5625 156.097656 203.195312 155.039062 204.824219 C 153.894531 206.453125 152.996094 207.921875 152.261719 209.226562 C 151.527344 210.527344 151.035156 211.507812 150.789062 212.160156 C 150.628906 212.160156 150.628906 212.238281 150.871094 212.320312 L 150.953125 212.078125 C 151.117188 212.078125 151.609375 211.589844 152.507812 210.691406 C 153.402344 209.796875 154.382812 208.65625 155.609375 207.351562 C 156.835938 205.964844 158.140625 204.5 159.527344 202.785156 C 160.917969 201.074219 162.222656 199.445312 163.53125 197.898438 C 164.835938 196.265625 165.980469 194.800781 166.878906 193.496094 C 167.695312 192.109375 168.347656 191.050781 168.675781 190.480469 Z M 168.675781 190.480469 " fill-opacity="1" fill-rule="nonzero"/><path fill="#000000" d="M 182.234375 201.566406 C 181.824219 202.296875 181.089844 203.355469 180.191406 204.824219 C 179.210938 206.292969 178.148438 207.839844 177.003906 209.304688 C 175.863281 210.855469 174.71875 212.238281 173.496094 213.460938 C 172.351562 214.683594 171.371094 215.417969 170.472656 215.664062 C 169.65625 215.824219 169.164062 215.5 168.839844 214.601562 C 168.757812 214.277344 168.675781 214.113281 168.511719 214.195312 L 168.429688 214.195312 C 168.347656 214.277344 168.265625 214.359375 168.105469 214.359375 L 167.207031 214.847656 C 166.960938 214.929688 166.878906 214.847656 166.878906 214.765625 C 166.714844 214.601562 166.714844 214.523438 166.878906 214.441406 L 166.960938 214.359375 C 167.695312 213.953125 168.265625 213.382812 168.675781 212.8125 C 169.085938 212.238281 169.410156 211.667969 169.65625 211.179688 C 169.902344 210.609375 170.226562 210.039062 170.636719 209.46875 C 171.042969 208.898438 171.617188 208.410156 172.269531 208.003906 C 172.351562 207.921875 172.433594 207.839844 172.597656 207.839844 C 172.757812 207.839844 172.921875 207.839844 173.085938 207.921875 C 173.25 208.003906 173.332031 208.246094 173.25 208.574219 C 173.003906 209.144531 172.597656 209.796875 172.105469 210.449219 C 171.535156 211.097656 171.042969 211.667969 170.636719 212.078125 C 170.0625 212.648438 169.738281 213.054688 169.65625 213.382812 C 169.574219 213.707031 169.492188 214.03125 169.574219 214.277344 C 169.738281 214.765625 169.984375 215.011719 170.390625 214.929688 C 171.289062 214.683594 172.515625 213.707031 173.984375 211.996094 C 175.453125 210.285156 176.925781 208.328125 178.3125 206.128906 C 179.78125 203.929688 181.089844 201.808594 182.394531 199.773438 C 183.621094 197.734375 184.519531 196.1875 184.925781 195.289062 C 185.335938 194.554688 185.664062 194.066406 185.824219 193.824219 C 185.988281 193.578125 186.152344 193.332031 186.234375 193.171875 C 186.480469 192.679688 186.722656 192.4375 186.96875 192.355469 C 187.050781 192.355469 187.132812 192.355469 187.214844 192.4375 C 187.378906 192.519531 187.460938 192.679688 187.539062 192.84375 C 187.621094 193.007812 187.460938 193.414062 187.214844 193.902344 C 186.640625 194.636719 186.152344 195.535156 185.664062 196.59375 C 185.171875 197.652344 184.847656 198.550781 184.765625 199.363281 C 184.683594 200.179688 185.089844 200.585938 185.988281 200.585938 C 186.234375 200.585938 186.480469 200.585938 186.722656 200.503906 C 186.96875 200.421875 187.296875 200.421875 187.621094 200.421875 C 187.785156 200.421875 187.949219 200.421875 188.195312 200.421875 C 188.4375 200.34375 188.601562 200.34375 188.765625 200.421875 C 189.582031 200.503906 190.152344 200.914062 190.316406 201.726562 C 190.316406 202.054688 190.316406 202.378906 190.234375 202.625 C 190.152344 202.867188 190.152344 203.195312 190.074219 203.519531 C 189.5 204.988281 188.601562 206.863281 187.378906 209.144531 C 186.640625 210.527344 185.824219 212.078125 184.847656 213.871094 C 183.867188 215.664062 182.804688 217.617188 181.660156 219.820312 C 181.496094 220.308594 181.253906 220.796875 180.84375 221.449219 C 180.515625 222.101562 180.191406 222.753906 179.945312 223.488281 C 179.699219 224.21875 179.375 224.871094 179.210938 225.523438 C 178.964844 226.175781 178.882812 226.746094 178.800781 227.234375 C 178.882812 227.804688 179.046875 227.96875 179.375 227.886719 C 179.699219 227.804688 180.109375 227.5625 180.597656 227.234375 C 181.089844 226.828125 181.578125 226.421875 182.070312 226.011719 C 182.558594 225.523438 183.050781 225.117188 183.457031 224.546875 C 183.867188 224.058594 184.191406 223.648438 184.4375 223.40625 C 185.988281 221.695312 187.378906 219.980469 188.765625 218.269531 C 190.074219 216.558594 191.460938 214.847656 192.765625 213.136719 C 193.421875 212.238281 194.074219 211.34375 194.808594 210.527344 C 195.460938 209.714844 196.117188 208.816406 196.851562 207.921875 C 196.933594 207.839844 196.933594 207.757812 197.015625 207.757812 C 197.015625 207.757812 197.097656 207.675781 197.175781 207.59375 C 197.257812 207.433594 197.421875 207.433594 197.503906 207.511719 L 197.585938 207.839844 C 197.585938 208.003906 197.097656 208.65625 196.277344 209.796875 C 195.460938 210.9375 194.484375 212.238281 193.421875 213.625 C 192.359375 215.011719 191.378906 216.316406 190.398438 217.617188 C 189.417969 218.839844 188.847656 219.65625 188.601562 219.980469 C 188.277344 220.390625 187.703125 221.042969 186.886719 222.019531 C 186.070312 222.914062 185.253906 223.894531 184.355469 224.871094 C 183.457031 225.851562 182.558594 226.664062 181.742188 227.480469 C 180.84375 228.292969 180.191406 228.703125 179.621094 228.863281 C 178.800781 229.027344 178.394531 228.785156 178.230469 228.132812 C 178.066406 227.640625 178.066406 226.992188 178.230469 226.257812 C 178.476562 225.277344 178.722656 224.300781 179.128906 223.40625 C 179.539062 222.507812 179.945312 221.53125 180.273438 220.550781 C 181.171875 218.515625 182.234375 216.476562 183.292969 214.601562 C 184.4375 212.648438 185.417969 210.691406 186.480469 208.734375 C 186.886719 207.921875 187.296875 207.023438 187.703125 206.210938 C 188.113281 205.394531 188.4375 204.5 188.765625 203.601562 C 189.09375 202.625 189.09375 202.054688 188.929688 201.972656 C 188.765625 201.808594 188.113281 201.808594 187.132812 201.972656 C 185.5 202.378906 184.273438 201.890625 183.375 200.667969 C 183.375 200.503906 183.292969 200.503906 183.210938 200.503906 C 182.96875 200.585938 182.722656 200.914062 182.234375 201.566406 Z M 182.234375 201.566406 " fill-opacity="1" fill-rule="nonzero"/><path fill="#000000" d="M 200.035156 204.335938 C 200.851562 203.519531 201.667969 202.949219 202.484375 202.785156 C 202.648438 202.785156 202.730469 202.785156 202.730469 202.867188 C 203.464844 202.785156 203.710938 203.03125 203.546875 203.601562 C 203.382812 204.171875 202.8125 204.824219 201.832031 205.558594 C 200.851562 206.292969 200.035156 206.78125 199.382812 207.105469 C 198.8125 207.351562 198.402344 207.757812 198.074219 208.164062 C 197.75 208.65625 197.421875 209.0625 197.175781 209.46875 C 196.769531 210.285156 196.6875 210.773438 197.015625 211.097656 C 197.257812 211.425781 197.667969 211.507812 198.15625 211.34375 L 198.484375 211.261719 C 199.21875 211.019531 199.953125 210.773438 200.527344 210.449219 C 201.097656 210.203125 201.75 209.796875 202.484375 209.304688 L 204.855469 207.839844 C 205.097656 207.675781 205.261719 207.511719 205.425781 207.511719 L 205.996094 207.105469 C 206.734375 206.617188 207.550781 206.128906 208.367188 205.71875 C 209.183594 205.3125 209.917969 204.824219 210.734375 204.417969 C 210.898438 204.335938 211.0625 204.253906 211.386719 204.171875 C 211.550781 204.007812 211.714844 204.007812 211.714844 204.253906 L 211.796875 204.578125 L 211.714844 204.578125 L 209.589844 205.882812 C 209.507812 205.882812 209.507812 205.964844 209.507812 205.964844 L 209.425781 205.964844 C 209.347656 205.964844 209.347656 206.046875 209.265625 206.046875 C 209.265625 206.128906 209.183594 206.128906 209.101562 206.128906 L 209.019531 206.128906 C 208.9375 206.210938 208.9375 206.292969 208.855469 206.292969 C 208.855469 206.292969 208.773438 206.371094 208.691406 206.453125 L 208.609375 206.453125 L 202.402344 210.367188 C 201.261719 211.179688 199.953125 211.75 198.484375 212.160156 C 198.402344 212.160156 198.320312 212.160156 198.15625 212.160156 L 197.75 212.238281 C 196.523438 212.160156 195.953125 211.667969 195.871094 210.609375 L 195.871094 210.527344 C 195.953125 210.449219 195.953125 210.367188 195.953125 210.285156 C 196.035156 209.796875 196.199219 209.386719 196.441406 209.0625 L 196.523438 208.65625 L 196.6875 208.410156 C 196.769531 208.328125 196.769531 208.246094 196.769531 208.246094 C 196.769531 208.246094 196.769531 208.164062 196.851562 208.082031 C 196.851562 207.921875 196.769531 207.839844 196.6875 207.839844 C 196.605469 207.675781 196.769531 207.511719 197.015625 207.433594 C 197.257812 207.351562 197.667969 207.023438 198.238281 206.371094 C 198.566406 205.800781 199.21875 205.148438 200.035156 204.335938 Z M 201.914062 204.171875 C 201.667969 204.253906 201.34375 204.417969 200.933594 204.824219 C 200.851562 204.988281 200.6875 205.148438 200.609375 205.230469 C 200.445312 205.3125 200.28125 205.476562 200.117188 205.558594 C 200.199219 205.558594 200.28125 205.558594 200.28125 205.558594 C 200.363281 205.558594 200.363281 205.558594 200.445312 205.558594 L 201.015625 205.230469 L 201.097656 205.230469 C 201.179688 205.148438 201.34375 204.988281 201.585938 204.824219 L 201.667969 204.742188 C 201.75 204.742188 201.75 204.660156 201.75 204.660156 L 201.832031 204.660156 L 201.914062 204.578125 L 201.996094 204.5 C 202.160156 204.417969 202.160156 204.253906 202.078125 204.089844 Z M 201.914062 204.171875 " fill-opacity="1" fill-rule="nonzero"/><path fill="#000000" d="M 216.941406 209.796875 C 217.105469 209.714844 217.265625 209.714844 217.429688 209.957031 C 217.59375 210.121094 217.757812 210.367188 217.839844 210.609375 C 217.921875 210.9375 217.757812 211.179688 217.347656 211.261719 C 216.859375 211.34375 216.53125 211.261719 216.449219 210.855469 C 216.289062 210.203125 216.449219 209.875 216.941406 209.796875 Z M 228.292969 175.566406 C 228.863281 174.34375 229.515625 173.121094 230.171875 171.820312 C 230.824219 170.515625 231.558594 169.292969 232.210938 168.152344 C 232.867188 167.011719 233.4375 166.441406 233.847656 166.277344 C 233.847656 166.195312 233.925781 166.195312 234.007812 166.113281 C 234.253906 166.03125 234.417969 166.113281 234.5 166.277344 C 234.582031 166.359375 234.664062 166.359375 234.664062 166.441406 C 234.742188 166.601562 234.5 167.011719 234.171875 167.582031 C 232.867188 169.457031 231.558594 171.65625 230.253906 174.265625 C 228.945312 176.871094 227.722656 179.5625 226.578125 182.332031 C 225.351562 185.101562 224.289062 187.875 223.3125 190.5625 C 222.332031 193.253906 221.515625 195.695312 220.777344 197.816406 C 220.289062 199.199219 219.878906 200.585938 219.472656 201.972656 C 219.0625 203.355469 218.738281 204.824219 218.574219 206.292969 L 218.492188 206.535156 C 218.492188 206.699219 218.492188 206.78125 218.328125 206.78125 C 218.085938 206.863281 218.003906 206.78125 218.003906 206.699219 C 218.003906 206.535156 218.003906 206.453125 218.003906 206.371094 L 217.921875 206.210938 C 218.164062 204.578125 218.410156 202.949219 218.902344 201.320312 C 219.308594 199.691406 219.878906 197.980469 220.453125 196.1875 C 222.414062 190.398438 224.699219 184.207031 227.230469 177.769531 C 227.3125 177.523438 227.722656 176.789062 228.292969 175.566406 Z M 228.292969 175.566406 " fill-opacity="1" fill-rule="nonzero"/></svg>