<svg xmlns="http://www.w3.org/2000/svg" xmlns:xlink="http://www.w3.org/1999/xlink" width="500" zoomAndPan="magnify" viewBox="0 0 375 374.999991" height="500" preserveAspectRatio="xMidYMid meet" version="1.0"><defs><clipPath id="c83d30c7df"><path d="M 149 164.8125 L 189 164.8125 L 189 217.3125 L 149 217.3125 Z M 149 164.8125 " clip-rule="nonzero"/></clipPath></defs><path fill="#ffffff" d="M 272.46875 173.425781 C 269.585938 172.957031 133.421875 173.660156 137.199219 173.519531 C 120.953125 174.035156 112.5 195.191406 127.09375 204.851562 C 133.28125 208.933594 126.953125 207.667969 269.300781 207.292969 C 278.230469 206.871094 285.878906 200.539062 286.589844 191.4375 C 287.25 182.808594 281.0625 174.832031 272.46875 173.425781 Z M 272.46875 173.425781 " fill-opacity="1" fill-rule="nonzero"/><g clip-path="url(#c83d30c7df)"><path fill="#000000" d="M 188.824219 189.5625 C 188.632812 189.75 188.351562 189.890625 187.878906 190.078125 C 187.832031 190.078125 187.785156 190.078125 187.785156 190.125 C 187.785156 190.125 187.738281 190.171875 187.691406 190.171875 L 187.546875 190.21875 C 187.5 190.265625 187.453125 190.265625 187.40625 190.265625 L 187.359375 190.265625 C 187.359375 190.3125 187.359375 190.3125 187.3125 190.3125 L 187.121094 190.359375 C 187.074219 190.40625 187.027344 190.40625 186.980469 190.40625 C 186.179688 190.734375 185.421875 191.015625 184.714844 191.25 C 184.476562 191.34375 184.289062 191.4375 184.054688 191.53125 C 183.816406 191.625 183.628906 191.71875 183.390625 191.8125 C 183.0625 191.953125 182.777344 192.046875 182.496094 192.140625 C 182.210938 192.234375 181.925781 192.328125 181.597656 192.421875 C 181.597656 192.515625 181.550781 192.515625 181.457031 192.421875 L 181.503906 192.375 C 181.503906 192.328125 181.503906 192.28125 181.550781 192.234375 L 181.550781 192.09375 C 181.644531 192 181.691406 191.90625 181.691406 191.859375 C 181.832031 191.71875 181.925781 191.578125 181.976562 191.4375 C 182.304688 190.875 182.496094 190.171875 182.496094 189.421875 C 182.398438 188.4375 181.785156 187.964844 180.699219 187.964844 C 179.851562 187.964844 178.859375 188.25 177.722656 188.8125 C 176.589844 189.375 175.410156 190.03125 174.324219 190.875 C 173.191406 191.671875 172.152344 192.515625 171.160156 193.3125 C 170.167969 194.160156 169.410156 194.863281 168.890625 195.425781 C 168.84375 195.332031 168.890625 195.097656 169.082031 194.769531 L 169.460938 194.207031 C 169.460938 194.160156 169.460938 194.113281 169.507812 194.066406 C 169.507812 194.019531 169.507812 193.972656 169.554688 193.972656 C 169.554688 193.972656 169.601562 193.921875 169.601562 193.875 C 169.695312 193.734375 169.789062 193.59375 169.882812 193.40625 C 169.980469 193.21875 170.121094 193.03125 170.308594 192.796875 L 170.5 192.421875 C 170.78125 192 171.019531 191.578125 171.347656 191.109375 C 171.632812 190.640625 171.867188 190.171875 172.058594 189.703125 C 172.246094 189.1875 172.199219 188.90625 172.007812 188.859375 C 171.914062 188.8125 171.820312 188.859375 171.679688 188.953125 C 171.539062 189.046875 171.488281 189.1875 171.539062 189.28125 C 171.585938 189.375 171.539062 189.515625 171.488281 189.609375 C 171.019531 189.9375 170.546875 190.21875 170.027344 190.5 C 169.507812 190.78125 168.988281 191.109375 168.515625 191.4375 C 168.183594 191.625 167.949219 191.765625 167.757812 191.859375 C 167.570312 191.953125 167.429688 192.046875 167.332031 192.09375 C 167.238281 192.140625 167.097656 192.140625 166.957031 192.140625 C 166.765625 192.140625 166.71875 192 166.765625 191.765625 C 166.765625 191.4375 166.863281 191.0625 167.097656 190.640625 C 167.332031 190.21875 167.570312 189.796875 167.902344 189.421875 C 168.230469 189 168.515625 188.625 168.84375 188.25 C 169.175781 187.871094 169.410156 187.589844 169.601562 187.308594 C 169.695312 187.214844 169.789062 187.121094 169.882812 186.980469 C 169.980469 186.839844 170.074219 186.746094 170.074219 186.652344 C 170.074219 186.511719 169.980469 186.464844 169.789062 186.464844 C 169.695312 186.417969 169.601562 186.464844 169.460938 186.605469 C 169.410156 186.605469 169.363281 186.652344 169.269531 186.746094 C 169.035156 186.933594 168.84375 187.074219 168.65625 187.214844 C 168.46875 187.355469 168.277344 187.496094 168.089844 187.636719 C 167.902344 187.777344 167.757812 187.871094 167.617188 187.964844 C 167.476562 188.058594 167.382812 188.152344 167.285156 188.25 C 167.191406 188.34375 167.144531 188.390625 167.097656 188.390625 C 166.671875 188.71875 166.390625 188.90625 166.246094 188.90625 C 166.152344 188.90625 166.058594 188.90625 165.964844 188.859375 C 165.871094 188.859375 165.824219 188.859375 165.773438 188.8125 L 165.207031 188.8125 C 164.925781 188.8125 164.640625 188.90625 164.3125 189.046875 C 164.121094 189.140625 163.980469 189.234375 163.839844 189.375 C 163.792969 189.09375 163.554688 188.90625 163.175781 188.8125 C 162.515625 188.8125 161.667969 189.1875 160.675781 189.84375 C 159.683594 190.546875 158.691406 191.34375 157.652344 192.328125 C 156.613281 193.265625 155.714844 194.253906 154.816406 195.191406 C 153.96875 196.175781 153.304688 196.878906 152.882812 197.394531 C 152.691406 197.582031 152.550781 197.816406 152.363281 198.050781 C 152.171875 198.285156 151.984375 198.472656 151.746094 198.707031 C 151.652344 198.800781 151.605469 198.847656 151.558594 198.894531 C 151.558594 198.941406 151.511719 198.988281 151.464844 199.035156 C 151.132812 199.457031 150.757812 199.882812 150.332031 200.257812 C 150.140625 200.351562 150.046875 200.398438 150 200.398438 C 149.90625 200.351562 149.859375 200.257812 149.859375 200.164062 L 149.859375 200.117188 C 149.859375 199.457031 150 198.613281 150.332031 197.628906 C 150.660156 196.644531 151.085938 195.519531 151.652344 194.347656 C 152.21875 193.171875 152.835938 191.953125 153.542969 190.6875 C 154.25 189.421875 154.960938 188.152344 155.667969 186.933594 C 156.375 185.714844 157.039062 184.589844 157.699219 183.558594 C 158.359375 182.527344 158.925781 181.632812 159.398438 180.929688 C 159.539062 180.742188 159.683594 180.648438 159.824219 180.507812 C 159.964844 180.414062 160.296875 180.320312 160.722656 180.226562 L 161.003906 180.226562 C 161.050781 180.179688 161.097656 180.179688 161.195312 180.179688 C 161.242188 180.179688 161.289062 180.179688 161.335938 180.132812 L 161.476562 180.132812 C 161.570312 180.132812 161.617188 180.132812 161.667969 180.085938 L 161.855469 180.085938 C 161.902344 180.085938 161.902344 180.085938 161.902344 180.039062 C 161.902344 180.039062 161.902344 179.992188 161.949219 179.992188 L 162.089844 179.992188 C 163.226562 179.664062 164.453125 179.382812 165.726562 179.148438 C 167.003906 178.914062 168.324219 178.726562 169.695312 178.539062 C 171.066406 178.351562 172.386719 178.257812 173.664062 178.164062 C 174.984375 178.070312 176.214844 178.023438 177.441406 178.023438 C 177.722656 178.023438 177.960938 178.023438 178.148438 178.023438 C 178.386719 178.023438 178.574219 178.070312 178.808594 178.164062 C 179.234375 178.210938 179.472656 178.351562 179.472656 178.585938 C 179.472656 178.773438 179.425781 178.867188 179.328125 178.960938 C 179.234375 179.148438 179.234375 179.289062 179.328125 179.289062 L 179.378906 179.289062 L 179.425781 179.242188 C 179.707031 179.101562 179.800781 178.960938 179.800781 178.726562 C 179.800781 178.492188 179.660156 178.304688 179.425781 178.164062 C 179.234375 178.023438 178.953125 177.929688 178.480469 177.835938 L 178.433594 177.835938 C 178.054688 177.789062 177.769531 177.789062 177.488281 177.742188 C 177.203125 177.742188 176.921875 177.695312 176.636719 177.695312 C 176.214844 177.695312 175.789062 177.695312 175.363281 177.742188 C 174.984375 177.789062 174.605469 177.835938 174.230469 177.882812 C 171.867188 178.117188 169.601562 178.351562 167.429688 178.679688 C 165.253906 179.007812 162.988281 179.335938 160.769531 179.664062 C 160.578125 179.757812 160.484375 179.757812 160.4375 179.664062 C 160.390625 179.570312 160.390625 179.523438 160.4375 179.476562 C 160.484375 179.429688 160.53125 179.382812 160.578125 179.289062 L 160.628906 179.242188 C 160.628906 179.195312 160.628906 179.148438 160.675781 179.101562 L 160.675781 179.054688 C 161.714844 177.601562 162.800781 176.191406 163.933594 174.832031 C 165.019531 173.472656 166.246094 172.019531 167.523438 170.5625 L 167.710938 170.375 C 167.902344 170.1875 168.042969 169.953125 168.230469 169.71875 C 168.421875 169.484375 168.609375 169.296875 168.84375 169.0625 C 169.269531 168.546875 169.742188 167.984375 170.167969 167.46875 C 170.59375 166.953125 171.066406 166.4375 171.539062 165.875 C 171.726562 165.734375 171.867188 165.5 172.007812 165.261719 C 172.058594 165.121094 172.007812 165.027344 171.960938 164.933594 C 171.867188 164.839844 171.726562 164.839844 171.585938 164.933594 L 169.410156 167.140625 C 167.710938 169.109375 166.011719 171.128906 164.359375 173.144531 C 162.707031 175.160156 161.195312 177.226562 159.730469 179.382812 C 159.589844 179.570312 159.445312 179.757812 159.257812 179.851562 C 159.070312 179.945312 158.738281 180.039062 158.265625 180.132812 C 157.980469 180.179688 157.414062 180.320312 156.472656 180.507812 C 155.527344 180.695312 154.535156 180.976562 153.496094 181.210938 C 152.410156 181.492188 151.464844 181.773438 150.566406 182.148438 C 149.667969 182.476562 149.148438 182.855469 149.054688 183.230469 C 148.960938 183.371094 149.007812 183.464844 149.199219 183.558594 C 149.292969 183.652344 149.386719 183.605469 149.480469 183.511719 C 149.71875 183.277344 150.1875 182.996094 150.992188 182.714844 C 151.796875 182.429688 152.644531 182.195312 153.589844 181.914062 C 154.535156 181.679688 155.433594 181.445312 156.328125 181.210938 C 157.226562 180.976562 157.933594 180.835938 158.40625 180.695312 L 158.453125 180.695312 C 158.597656 180.648438 158.691406 180.648438 158.738281 180.695312 C 158.644531 180.882812 158.597656 180.976562 158.597656 181.023438 C 157.886719 182.101562 157.039062 183.417969 156.046875 185.058594 C 155.054688 186.699219 154.109375 188.34375 153.164062 190.125 C 152.21875 191.90625 151.417969 193.640625 150.660156 195.332031 C 149.953125 197.019531 149.480469 198.566406 149.292969 199.882812 L 149.292969 200.023438 C 149.292969 200.210938 149.339844 200.351562 149.339844 200.539062 C 149.386719 200.726562 149.527344 200.820312 149.71875 200.820312 C 150.09375 200.820312 150.378906 200.679688 150.660156 200.398438 C 150.945312 200.117188 151.179688 199.882812 151.417969 199.644531 C 151.84375 199.128906 152.550781 198.238281 153.542969 197.066406 C 154.535156 195.894531 155.574219 194.722656 156.707031 193.546875 C 157.839844 192.375 158.972656 191.34375 160.109375 190.453125 C 161.242188 189.5625 162.136719 189.140625 162.800781 189.140625 C 163.035156 189.140625 163.175781 189.28125 163.226562 189.609375 C 163.175781 189.609375 163.175781 189.65625 163.128906 189.65625 C 162.847656 189.890625 162.609375 190.125 162.375 190.40625 C 162.136719 190.6875 162.042969 190.921875 161.996094 191.15625 L 161.996094 191.296875 C 161.996094 191.53125 162.136719 191.71875 162.375 191.765625 L 162.707031 191.71875 C 162.753906 191.71875 162.800781 191.71875 162.847656 191.671875 L 162.894531 191.671875 C 163.226562 191.578125 163.460938 191.4375 163.746094 191.25 C 163.980469 191.0625 164.214844 190.875 164.453125 190.734375 C 164.546875 190.6875 164.6875 190.59375 164.832031 190.5 L 165.019531 190.3125 C 165.207031 190.21875 165.304688 190.171875 165.351562 190.125 C 165.679688 189.796875 165.964844 189.609375 166.058594 189.5625 L 166.578125 189.140625 C 166.71875 189 166.8125 188.953125 166.910156 188.953125 L 166.957031 188.953125 C 166.957031 188.90625 166.957031 188.90625 167.003906 188.90625 C 167.003906 188.90625 167.050781 188.90625 167.050781 188.953125 L 167.097656 188.953125 L 166.957031 189 C 166.957031 189.09375 166.910156 189.234375 166.765625 189.421875 C 166.246094 190.125 165.871094 190.78125 165.726562 191.4375 C 165.632812 191.953125 165.726562 192.375 166.011719 192.609375 C 166.105469 192.703125 166.292969 192.75 166.53125 192.75 C 166.71875 192.75 166.863281 192.75 166.910156 192.703125 L 167.050781 192.703125 C 167.332031 192.5625 167.523438 192.46875 167.664062 192.375 C 168.089844 192.140625 168.5625 191.859375 168.988281 191.53125 L 169.601562 191.15625 C 169.742188 191.015625 169.882812 190.921875 170.074219 190.828125 C 170.214844 190.6875 170.308594 190.640625 170.402344 190.59375 C 170.546875 190.546875 170.640625 190.5 170.6875 190.40625 L 168.988281 193.21875 C 168.65625 193.78125 168.324219 194.347656 167.996094 194.910156 C 167.664062 195.472656 167.332031 196.035156 167.003906 196.597656 C 166.8125 196.878906 166.484375 197.253906 166.011719 197.769531 C 164.925781 198.800781 163.648438 200.070312 162.234375 201.523438 C 160.816406 203.023438 159.445312 204.570312 158.171875 206.261719 C 156.894531 207.949219 155.761719 209.589844 154.816406 211.234375 C 153.875 212.875 153.355469 214.375 153.210938 215.734375 L 153.210938 216.578125 L 153.257812 216.71875 C 153.402344 217.097656 153.589844 217.285156 153.875 217.285156 C 154.296875 217.238281 154.769531 216.957031 155.195312 216.4375 C 155.621094 215.921875 155.953125 215.5 156.1875 215.171875 L 156.519531 214.65625 L 156.707031 214.46875 C 156.800781 214.28125 156.847656 214.1875 156.894531 214.140625 C 157.558594 213.15625 158.171875 212.21875 158.738281 211.28125 C 159.304688 210.339844 159.871094 209.449219 160.390625 208.605469 C 161.476562 206.777344 162.5625 205.039062 163.601562 203.304688 C 164.640625 201.570312 165.679688 199.835938 166.671875 198.050781 C 167.097656 197.300781 167.902344 196.410156 168.988281 195.285156 C 170.074219 194.207031 171.300781 193.125 172.625 192.140625 C 173.945312 191.109375 175.269531 190.265625 176.636719 189.5625 C 178.007812 188.859375 179.140625 188.484375 180.039062 188.484375 C 181.125 188.484375 181.550781 189.09375 181.3125 190.3125 C 181.125 190.875 180.839844 191.484375 180.367188 192.140625 C 179.945312 192.796875 179.28125 193.265625 178.433594 193.59375 L 178.386719 193.59375 C 178.339844 193.640625 178.289062 193.6875 178.195312 193.734375 L 178.148438 193.734375 C 178.101562 193.734375 178.101562 193.734375 178.101562 193.78125 L 177.628906 193.972656 C 177.582031 194.019531 177.535156 194.019531 177.488281 194.019531 L 177.441406 194.066406 C 177.347656 194.113281 177.300781 194.113281 177.253906 194.113281 C 177.253906 194.113281 177.15625 194.113281 177.0625 194.160156 C 176.636719 194.347656 176.117188 194.582031 175.503906 194.910156 C 174.890625 195.238281 174.324219 195.660156 173.710938 196.035156 C 173.097656 196.457031 172.578125 196.878906 172.105469 197.347656 C 171.632812 197.816406 171.347656 198.191406 171.207031 198.566406 C 170.96875 199.222656 171.253906 199.550781 171.960938 199.550781 C 172.292969 199.550781 172.8125 199.363281 173.472656 198.988281 L 173.617188 198.988281 C 174.890625 198.238281 176.023438 197.441406 177.015625 196.597656 C 178.007812 195.753906 178.90625 194.863281 179.707031 193.972656 C 179.945312 193.6875 180.085938 193.5 180.226562 193.40625 C 180.367188 193.3125 180.511719 193.21875 180.605469 193.125 C 181.171875 192.9375 181.738281 192.703125 182.304688 192.46875 C 182.871094 192.234375 183.4375 192 184.003906 191.765625 L 187.972656 190.03125 C 188.304688 189.9375 188.492188 189.84375 188.632812 189.65625 C 188.679688 189.515625 188.679688 189.46875 188.632812 189.421875 C 188.964844 189.421875 188.871094 189.421875 188.824219 189.5625 Z M 164.3125 190.359375 C 163.933594 190.59375 163.648438 190.78125 163.367188 190.921875 C 163.035156 191.15625 162.894531 191.25 162.894531 191.109375 C 162.894531 190.96875 162.988281 190.78125 163.175781 190.59375 C 163.367188 190.40625 163.554688 190.21875 163.839844 190.078125 C 164.121094 189.890625 164.359375 189.75 164.6875 189.65625 C 164.972656 189.515625 165.207031 189.46875 165.398438 189.46875 C 165.019531 189.796875 164.6875 190.125 164.3125 190.359375 Z M 165.871094 198.988281 L 163.695312 202.882812 C 163.320312 203.492188 162.894531 204.148438 162.515625 204.757812 C 162.136719 205.417969 161.761719 206.027344 161.429688 206.683594 C 160.722656 207.855469 160.011719 209.074219 159.304688 210.246094 C 158.597656 211.421875 157.886719 212.59375 157.132812 213.71875 C 157.039062 213.859375 156.894531 214.140625 156.613281 214.46875 C 156.375 214.796875 156.09375 215.171875 155.808594 215.546875 C 155.527344 215.921875 155.242188 216.25 154.914062 216.53125 C 154.582031 216.816406 154.34375 216.957031 154.203125 216.957031 C 154.015625 216.957031 153.921875 216.816406 153.875 216.578125 C 153.824219 216.390625 153.824219 216.15625 153.824219 215.921875 C 153.824219 215.6875 153.875 215.453125 153.921875 215.265625 C 154.25 213.859375 154.816406 212.40625 155.714844 210.855469 C 156.613281 209.308594 157.652344 207.808594 158.832031 206.355469 C 160.011719 204.898438 161.195312 203.492188 162.421875 202.179688 C 163.648438 200.867188 164.734375 199.695312 165.773438 198.660156 C 165.871094 198.566406 165.917969 198.472656 165.964844 198.425781 C 166.058594 198.613281 166.011719 198.753906 165.871094 198.988281 Z M 178.953125 194.347656 C 178.953125 194.394531 178.953125 194.441406 178.90625 194.488281 C 178.621094 194.769531 178.242188 195.191406 177.675781 195.707031 C 177.109375 196.222656 176.542969 196.738281 175.929688 197.207031 C 175.316406 197.675781 174.703125 198.097656 174.085938 198.472656 C 173.472656 198.847656 172.953125 199.035156 172.480469 199.082031 C 172.292969 199.128906 172.199219 199.082031 172.199219 198.894531 C 172.292969 198.519531 172.625 198.097656 173.191406 197.628906 C 173.757812 197.160156 174.417969 196.691406 175.125 196.269531 C 175.835938 195.847656 176.542969 195.425781 177.203125 195.097656 C 177.914062 194.769531 178.433594 194.488281 178.761719 194.347656 L 178.808594 194.347656 C 178.859375 194.300781 178.90625 194.300781 178.953125 194.347656 Z M 178.953125 194.347656 " fill-opacity="1" fill-rule="nonzero"/></g><path fill="#000000" d="M 218.578125 189.65625 C 218.53125 189.65625 218.53125 189.65625 218.53125 189.703125 C 218.53125 189.703125 218.53125 189.75 218.484375 189.75 C 218.390625 189.9375 218.199219 190.078125 217.871094 190.171875 C 217.824219 190.21875 217.773438 190.21875 217.726562 190.21875 L 217.539062 190.40625 C 217.160156 190.59375 216.734375 190.78125 216.214844 191.015625 C 215.695312 191.25 215.128906 191.4375 214.5625 191.625 C 213.996094 191.8125 213.429688 191.953125 212.816406 192.046875 C 212.25 192.1875 211.730469 192.234375 211.351562 192.234375 C 210.5 192.234375 210.03125 191.71875 209.933594 190.6875 C 209.886719 190.59375 209.886719 190.5 209.886719 190.40625 C 209.886719 190.3125 209.886719 190.21875 209.839844 190.125 C 209.746094 189.84375 209.605469 189.65625 209.460938 189.515625 C 209.273438 189.375 209.085938 189.328125 208.847656 189.328125 C 208.566406 189.375 208.234375 189.515625 207.761719 189.75 C 207.335938 189.984375 206.863281 190.265625 206.34375 190.546875 C 205.875 190.875 205.402344 191.15625 204.976562 191.484375 C 204.550781 191.8125 204.21875 192.046875 204.03125 192.1875 C 203.796875 192.375 203.464844 192.65625 202.992188 192.984375 L 202.945312 193.03125 C 202.945312 193.078125 202.945312 193.078125 202.898438 193.078125 C 202.804688 192.984375 202.804688 192.9375 202.898438 192.9375 L 203.039062 192.703125 C 203.605469 191.90625 204.171875 191.15625 204.738281 190.40625 C 205.304688 189.65625 205.921875 188.90625 206.535156 188.199219 C 206.628906 188.058594 206.722656 187.964844 206.914062 187.824219 C 207.054688 187.683594 207.382812 187.496094 207.855469 187.214844 C 208.753906 186.699219 209.933594 185.902344 211.445312 184.917969 C 212.957031 183.886719 214.46875 182.808594 216.074219 181.632812 C 217.632812 180.460938 219.097656 179.335938 220.417969 178.210938 C 221.742188 177.085938 222.6875 176.191406 223.253906 175.441406 C 223.632812 174.925781 223.726562 174.550781 223.535156 174.269531 C 223.347656 174.082031 223.160156 173.941406 222.921875 173.941406 C 222.308594 173.941406 221.601562 174.128906 220.796875 174.550781 C 219.996094 174.925781 219.191406 175.394531 218.390625 175.957031 C 217.585938 176.519531 216.832031 177.085938 216.167969 177.695312 C 215.460938 178.304688 214.941406 178.773438 214.46875 179.148438 L 213.996094 179.570312 C 212.769531 180.648438 211.589844 181.773438 210.453125 182.902344 C 209.320312 184.074219 208.234375 185.246094 207.195312 186.417969 C 206.863281 186.886719 206.441406 187.261719 206.015625 187.542969 C 205.589844 187.824219 205.117188 188.152344 204.644531 188.484375 L 203.652344 189.046875 C 203.511719 189.140625 203.371094 189.234375 203.179688 189.421875 C 203.039062 189.515625 203.039062 189.609375 203.132812 189.75 C 203.226562 189.84375 203.324219 189.84375 203.417969 189.75 L 203.890625 189.515625 C 204.078125 189.421875 204.171875 189.375 204.21875 189.375 C 204.316406 189.28125 204.363281 189.234375 204.410156 189.234375 C 204.644531 189.09375 204.785156 189.046875 204.882812 189.046875 L 205.023438 189.046875 C 204.785156 189.328125 204.597656 189.609375 204.363281 189.890625 C 204.125 190.171875 203.9375 190.453125 203.746094 190.734375 C 203.558594 190.96875 203.417969 191.203125 203.277344 191.34375 L 203.132812 191.484375 C 202.804688 192 202.472656 192.421875 202.1875 192.84375 C 201.90625 193.265625 201.667969 193.640625 201.433594 194.019531 C 201.292969 194.207031 201.199219 194.347656 201.054688 194.488281 C 200.960938 194.628906 200.867188 194.769531 200.773438 194.957031 L 200.726562 195.003906 C 200.726562 195.050781 200.726562 195.050781 200.679688 195.050781 C 200.679688 195.050781 200.628906 195.050781 200.628906 195.097656 L 200.582031 195.144531 C 200.488281 195.285156 200.394531 195.378906 200.347656 195.425781 C 200.300781 195.472656 200.207031 195.566406 200.160156 195.660156 C 199.875 195.941406 199.828125 196.175781 200.015625 196.269531 C 200.0625 196.316406 200.109375 196.316406 200.207031 196.316406 C 200.253906 196.316406 200.347656 196.269531 200.488281 196.128906 C 200.773438 195.800781 201.246094 195.285156 202 194.628906 C 202.757812 193.972656 203.558594 193.265625 204.457031 192.609375 C 205.355469 191.953125 206.203125 191.34375 207.054688 190.828125 C 207.902344 190.3125 208.519531 190.078125 208.894531 190.03125 C 209.085938 190.03125 209.179688 190.171875 209.226562 190.453125 L 209.226562 190.59375 C 209.226562 190.640625 209.226562 190.6875 209.273438 190.78125 C 209.273438 191.390625 209.460938 191.90625 209.792969 192.28125 C 210.171875 192.65625 210.644531 192.84375 211.304688 192.84375 C 211.539062 192.84375 211.777344 192.796875 212.011719 192.703125 L 212.296875 192.703125 C 212.769531 192.609375 213.335938 192.515625 213.902344 192.328125 C 214.515625 192.140625 215.082031 192 215.695312 191.765625 C 216.3125 191.578125 216.878906 191.296875 217.398438 191.015625 C 217.917969 190.734375 218.390625 190.40625 218.71875 190.03125 C 218.957031 189.84375 219.003906 189.703125 218.859375 189.609375 C 218.765625 189.46875 218.671875 189.515625 218.578125 189.65625 Z M 208.800781 185.714844 C 209.039062 185.339844 209.460938 184.824219 210.078125 184.121094 C 210.738281 183.464844 211.492188 182.714844 212.34375 181.867188 C 213.242188 181.023438 214.1875 180.226562 215.175781 179.382812 C 216.214844 178.539062 217.160156 177.789062 218.152344 177.085938 C 219.097656 176.378906 219.949219 175.816406 220.75 175.347656 C 221.507812 174.878906 222.121094 174.691406 222.496094 174.644531 C 222.59375 174.644531 222.640625 174.644531 222.6875 174.691406 C 222.78125 174.785156 222.6875 174.925781 222.496094 175.113281 C 222.167969 175.441406 221.648438 175.957031 220.890625 176.613281 C 220.136719 177.273438 219.285156 178.023438 218.246094 178.820312 C 217.253906 179.617188 216.214844 180.414062 215.175781 181.210938 C 214.136719 182.054688 213.148438 182.761719 212.203125 183.417969 C 211.304688 184.074219 210.5 184.589844 209.886719 185.011719 C 209.226562 185.433594 208.894531 185.621094 208.800781 185.621094 L 208.753906 185.761719 C 208.707031 185.714844 208.707031 185.714844 208.800781 185.714844 Z M 208.800781 185.714844 " fill-opacity="1" fill-rule="nonzero"/><path fill="#000000" d="M 245.925781 189.234375 C 245.734375 189.234375 245.59375 189.234375 245.546875 189.28125 C 245.027344 189.46875 244.460938 189.609375 243.941406 189.75 C 243.421875 189.890625 242.855469 190.078125 242.335938 190.265625 L 241.957031 190.453125 C 241.863281 190.453125 241.71875 190.5 241.578125 190.59375 L 239.972656 191.15625 C 239.5 191.34375 239.027344 191.484375 238.652344 191.578125 C 238.273438 191.671875 237.800781 191.71875 237.328125 191.765625 L 237.140625 191.765625 C 236.761719 191.765625 236.574219 191.671875 236.476562 191.4375 C 236.335938 191.203125 236.476562 190.875 236.808594 190.453125 C 237.042969 190.265625 237.28125 190.03125 237.515625 189.796875 C 237.800781 189.5625 238.082031 189.421875 238.460938 189.328125 C 238.886719 189.234375 239.453125 189.046875 240.160156 188.71875 C 240.871094 188.390625 241.296875 188.105469 241.4375 187.777344 C 241.625 187.449219 241.484375 187.261719 241.058594 187.214844 C 241.058594 187.167969 241.011719 187.167969 240.917969 187.167969 C 240.445312 187.167969 239.878906 187.355469 239.265625 187.777344 C 238.652344 188.152344 238.179688 188.484375 237.800781 188.71875 C 237.421875 189.046875 237.09375 189.234375 236.949219 189.234375 C 236.761719 189.234375 236.667969 189.28125 236.667969 189.421875 C 236.714844 189.46875 236.714844 189.515625 236.714844 189.609375 C 236.195312 190.03125 235.722656 190.453125 235.203125 190.828125 C 234.683594 191.25 234.164062 191.671875 233.644531 192.140625 C 232.605469 192.984375 231.613281 193.875 230.574219 194.722656 C 229.535156 195.566406 228.449219 196.410156 227.269531 197.207031 C 227.078125 197.347656 226.84375 197.535156 226.511719 197.769531 C 226.183594 198.003906 225.851562 198.238281 225.472656 198.425781 C 225.097656 198.613281 224.765625 198.800781 224.433594 198.988281 C 224.105469 199.175781 223.820312 199.222656 223.585938 199.222656 C 223.347656 199.222656 223.253906 199.035156 223.300781 198.707031 C 223.394531 198.425781 223.539062 198.097656 223.773438 197.722656 C 224.007812 197.347656 224.246094 196.972656 224.480469 196.597656 C 224.765625 196.222656 225 195.847656 225.332031 195.519531 C 225.617188 195.191406 225.851562 194.863281 226.039062 194.628906 C 227.03125 193.453125 227.929688 192.375 228.78125 191.4375 C 229.628906 190.5 230.339844 189.65625 230.953125 188.953125 C 231.992188 187.777344 232.792969 186.746094 233.359375 185.949219 C 233.457031 185.761719 233.550781 185.574219 233.597656 185.433594 C 233.644531 185.292969 233.738281 185.105469 233.738281 184.917969 C 233.738281 184.402344 233.503906 184.074219 232.984375 183.933594 C 232.886719 183.886719 232.792969 183.886719 232.652344 183.886719 C 232.511719 183.886719 232.417969 183.886719 232.320312 183.839844 C 232.132812 183.792969 231.945312 183.792969 231.800781 183.792969 C 231.613281 183.792969 231.472656 183.792969 231.328125 183.746094 C 230.808594 183.605469 230.621094 183.277344 230.808594 182.808594 C 231 182.335938 231.28125 181.820312 231.753906 181.257812 C 232.179688 180.695312 232.652344 180.226562 233.078125 179.851562 C 233.3125 179.570312 233.40625 179.335938 233.40625 179.242188 C 233.40625 179.101562 233.359375 179.007812 233.265625 178.914062 C 233.21875 178.867188 233.171875 178.867188 233.125 178.867188 C 232.984375 178.867188 232.792969 179.007812 232.605469 179.242188 C 232.511719 179.335938 232.417969 179.429688 232.273438 179.570312 C 232.132812 179.710938 231.898438 179.992188 231.566406 180.320312 C 231.1875 180.835938 230.433594 181.585938 229.394531 182.667969 C 228.355469 183.746094 227.269531 184.824219 226.085938 185.949219 C 224.90625 187.074219 223.773438 188.058594 222.6875 188.90625 C 221.601562 189.75 220.75 190.171875 220.183594 190.171875 C 219.902344 190.171875 219.804688 189.984375 219.804688 189.65625 C 219.804688 189.46875 219.851562 189.328125 219.996094 189.140625 C 220.089844 188.953125 220.371094 188.71875 220.75 188.484375 C 221.082031 188.296875 221.410156 188.011719 221.835938 187.683594 C 222.261719 187.355469 222.59375 187.027344 222.78125 186.699219 C 222.875 186.511719 222.875 186.371094 222.78125 186.277344 C 222.6875 186.183594 222.59375 186.136719 222.5 186.136719 C 222.402344 186.136719 222.355469 186.136719 222.308594 186.183594 C 221.882812 186.371094 221.460938 186.558594 221.128906 186.839844 C 220.796875 187.121094 220.515625 187.402344 220.277344 187.730469 C 220.042969 188.011719 219.757812 188.296875 219.429688 188.578125 C 219.097656 188.859375 218.671875 189.09375 218.199219 189.28125 L 218.152344 189.328125 C 218.011719 189.328125 218.011719 189.375 218.105469 189.515625 C 218.105469 189.609375 218.152344 189.65625 218.292969 189.65625 L 218.910156 189.46875 C 219.003906 189.46875 219.050781 189.46875 219.097656 189.421875 L 219.144531 189.421875 C 219.238281 189.421875 219.285156 189.515625 219.285156 189.75 C 219.332031 190.3125 219.617188 190.59375 220.089844 190.59375 C 220.609375 190.59375 221.316406 190.3125 222.167969 189.703125 C 223.019531 189.09375 223.914062 188.4375 224.8125 187.683594 C 225.710938 186.933594 226.558594 186.183594 227.316406 185.386719 C 228.070312 184.636719 228.636719 184.074219 229.015625 183.699219 C 229.394531 183.371094 229.582031 183.183594 229.675781 183.183594 C 229.722656 183.183594 229.722656 183.230469 229.722656 183.324219 C 230.101562 184.167969 230.761719 184.636719 231.800781 184.589844 C 232.417969 184.636719 232.792969 184.730469 232.886719 184.824219 C 232.984375 184.964844 232.886719 185.292969 232.558594 185.808594 C 232.226562 186.324219 231.898438 186.792969 231.566406 187.214844 C 231.234375 187.683594 230.859375 188.105469 230.527344 188.578125 C 229.628906 189.65625 228.730469 190.6875 227.789062 191.671875 C 226.84375 192.703125 225.992188 193.734375 225.144531 194.863281 C 224.8125 195.378906 224.433594 195.894531 224.054688 196.410156 C 223.679688 196.925781 223.347656 197.441406 223.113281 198.003906 C 222.875 198.425781 222.78125 198.800781 222.828125 199.128906 C 222.828125 199.550781 223.066406 199.742188 223.535156 199.742188 C 223.914062 199.742188 224.386719 199.550781 225 199.222656 C 225.613281 198.894531 226.277344 198.472656 226.9375 198.003906 C 227.597656 197.535156 228.210938 197.113281 228.828125 196.644531 C 229.441406 196.175781 229.867188 195.847656 230.101562 195.660156 C 230.289062 195.519531 230.761719 195.097656 231.519531 194.488281 C 232.273438 193.875 233.078125 193.21875 233.878906 192.515625 C 234.589844 191.90625 235.25 191.34375 235.863281 190.828125 C 235.863281 190.828125 235.863281 190.828125 235.863281 190.875 C 235.863281 190.921875 235.863281 190.96875 235.816406 191.015625 L 235.816406 191.0625 C 235.675781 191.671875 235.957031 192.09375 236.667969 192.28125 L 236.949219 192.28125 C 237.042969 192.328125 237.09375 192.328125 237.140625 192.328125 C 238.082031 192.28125 238.933594 192.09375 239.738281 191.765625 L 243.988281 190.265625 L 244.035156 190.265625 C 244.082031 190.21875 244.128906 190.21875 244.128906 190.21875 C 244.128906 190.21875 244.175781 190.21875 244.222656 190.171875 L 244.269531 190.171875 C 244.316406 190.171875 244.367188 190.171875 244.367188 190.125 C 244.367188 190.125 244.414062 190.078125 244.460938 190.078125 L 244.507812 190.078125 C 244.507812 190.03125 244.507812 190.03125 244.554688 190.03125 L 246.019531 189.515625 L 246.066406 189.515625 L 246.066406 189.328125 C 246.113281 189.1875 246.066406 189.140625 245.925781 189.234375 Z M 239.40625 188.390625 C 239.5 188.34375 239.59375 188.296875 239.691406 188.199219 C 239.972656 188.011719 240.160156 187.964844 240.351562 187.964844 L 240.539062 187.777344 C 240.539062 187.917969 240.492188 187.964844 240.398438 188.011719 L 240.304688 188.105469 L 240.257812 188.105469 C 240.257812 188.152344 240.257812 188.152344 240.210938 188.152344 L 240.160156 188.199219 C 239.972656 188.296875 239.878906 188.34375 239.832031 188.390625 L 239.785156 188.390625 L 239.40625 188.53125 C 239.359375 188.53125 239.3125 188.53125 239.3125 188.484375 C 239.3125 188.484375 239.265625 188.4375 239.21875 188.4375 C 239.21875 188.484375 239.3125 188.4375 239.40625 188.390625 Z M 239.40625 188.390625 " fill-opacity="1" fill-rule="nonzero"/><path fill="#000000" d="M 248.472656 193.40625 C 248.144531 193.40625 248.003906 193.59375 248.003906 193.972656 C 248.003906 194.207031 248.144531 194.347656 248.472656 194.347656 C 248.757812 194.347656 248.851562 194.253906 248.851562 194.019531 C 248.851562 193.828125 248.804688 193.6875 248.710938 193.546875 C 248.617188 193.40625 248.523438 193.359375 248.472656 193.40625 Z M 248.472656 193.40625 " fill-opacity="1" fill-rule="nonzero"/><path fill="#000000" d="M 265.003906 169.578125 C 264.957031 169.4375 264.863281 169.390625 264.722656 169.390625 C 264.625 169.390625 264.578125 169.390625 264.578125 169.4375 C 264.296875 169.484375 263.917969 169.765625 263.351562 170.375 C 262.785156 170.9375 262.21875 171.597656 261.605469 172.300781 C 260.992188 173.003906 260.472656 173.660156 259.953125 174.316406 C 259.433594 174.972656 259.101562 175.347656 259.007812 175.535156 C 256.597656 179.054688 254.378906 182.476562 252.394531 185.714844 C 251.78125 186.699219 251.214844 187.636719 250.742188 188.578125 C 250.269531 189.515625 249.84375 190.453125 249.464844 191.390625 L 249.464844 191.53125 C 249.417969 191.578125 249.417969 191.625 249.417969 191.71875 C 249.417969 191.8125 249.464844 191.859375 249.609375 191.859375 C 249.703125 191.859375 249.75 191.8125 249.75 191.71875 L 249.796875 191.578125 C 250.128906 190.734375 250.457031 189.890625 250.929688 189.09375 C 251.355469 188.296875 251.828125 187.542969 252.300781 186.746094 C 253.007812 185.574219 253.859375 184.214844 254.804688 182.714844 C 255.796875 181.210938 256.835938 179.710938 257.921875 178.164062 C 259.007812 176.660156 260.140625 175.207031 261.273438 173.800781 C 262.40625 172.441406 263.492188 171.269531 264.53125 170.328125 C 264.863281 170.046875 265.003906 169.8125 265.003906 169.71875 C 265.097656 169.671875 265.050781 169.625 265.003906 169.578125 Z M 265.003906 169.578125 " fill-opacity="1" fill-rule="nonzero"/></svg>