<svg xmlns="http://www.w3.org/2000/svg" xmlns:xlink="http://www.w3.org/1999/xlink" width="500" zoomAndPan="magnify" viewBox="0 0 375 374.999991" height="500" preserveAspectRatio="xMidYMid meet" version="1.0"><defs><clipPath id="1df24d4148"><path d="M 146.082031 134 L 243.582031 134 L 243.582031 198 L 146.082031 198 Z M 146.082031 134 " clip-rule="nonzero"/></clipPath></defs><path fill="#545454" d="M 206.609375 187.28125 L 219.757812 174.160156 C 220.273438 173.652344 220.734375 173.101562 221.140625 172.503906 C 221.546875 171.90625 221.894531 171.277344 222.179688 170.613281 C 222.46875 169.949219 222.6875 169.265625 222.839844 168.5625 C 222.996094 167.855469 223.078125 167.140625 223.09375 166.421875 C 223.109375 165.699219 223.058594 164.980469 222.933594 164.269531 C 222.8125 163.558594 222.621094 162.867188 222.367188 162.191406 C 222.109375 161.515625 221.789062 160.871094 221.410156 160.257812 C 221.027344 159.644531 220.59375 159.074219 220.101562 158.542969 C 219.609375 158.011719 219.070312 157.535156 218.488281 157.109375 C 217.902344 156.683594 217.285156 156.316406 216.628906 156.007812 C 215.976562 155.699219 215.296875 155.457031 214.597656 155.28125 C 213.894531 155.105469 213.183594 154.996094 212.460938 154.957031 C 211.738281 154.914062 211.019531 154.945312 210.300781 155.042969 C 209.585938 155.140625 208.882812 155.308594 208.199219 155.539062 C 207.511719 155.773438 206.855469 156.070312 206.230469 156.429688 C 205.601562 156.789062 205.015625 157.203125 204.46875 157.675781 C 203.917969 157.207031 203.332031 156.792969 202.707031 156.4375 C 202.078125 156.078125 201.421875 155.785156 200.738281 155.554688 C 200.054688 155.324219 199.355469 155.160156 198.640625 155.0625 C 197.921875 154.964844 197.207031 154.9375 196.484375 154.980469 C 195.765625 155.019531 195.054688 155.128906 194.351562 155.308594 C 193.652344 155.484375 192.976562 155.726562 192.324219 156.035156 C 191.671875 156.339844 191.054688 156.707031 190.46875 157.132812 C 189.886719 157.558594 189.351562 158.035156 188.859375 158.566406 C 188.371094 159.09375 187.933594 159.664062 187.554688 160.277344 C 187.175781 160.886719 186.855469 161.53125 186.597656 162.203125 C 186.34375 162.878906 186.152344 163.570312 186.027344 164.277344 C 185.90625 164.988281 185.851562 165.703125 185.867188 166.425781 C 185.878906 167.144531 185.964844 167.855469 186.117188 168.5625 C 186.265625 169.265625 186.484375 169.949219 186.769531 170.609375 C 187.050781 171.273438 187.398438 171.902344 187.800781 172.5 C 188.207031 173.097656 188.664062 173.648438 189.175781 174.15625 L 202.328125 187.277344 C 202.609375 187.558594 202.9375 187.777344 203.308594 187.929688 C 203.679688 188.082031 204.066406 188.160156 204.464844 188.160156 C 204.867188 188.160156 205.253906 188.085938 205.625 187.933594 C 205.996094 187.78125 206.324219 187.5625 206.609375 187.28125 Z M 193.449219 162.539062 C 193.691406 162.296875 193.957031 162.082031 194.238281 161.890625 C 194.523438 161.703125 194.824219 161.542969 195.140625 161.410156 C 195.457031 161.28125 195.78125 161.179688 196.117188 161.113281 C 196.453125 161.046875 196.792969 161.015625 197.136719 161.015625 C 197.476562 161.015625 197.816406 161.046875 198.152344 161.113281 C 198.488281 161.179688 198.8125 161.28125 199.128906 161.410156 C 199.445312 161.542969 199.746094 161.703125 200.03125 161.890625 C 200.316406 162.082031 200.578125 162.296875 200.820312 162.539062 L 202.292969 164 C 202.578125 164.292969 202.90625 164.519531 203.285156 164.679688 C 203.660156 164.835938 204.054688 164.917969 204.464844 164.917969 C 204.875 164.917969 205.265625 164.835938 205.644531 164.679688 C 206.019531 164.519531 206.351562 164.292969 206.636719 164 L 208.105469 162.539062 C 208.347656 162.296875 208.613281 162.082031 208.898438 161.894531 C 209.179688 161.703125 209.480469 161.542969 209.796875 161.414062 C 210.113281 161.28125 210.441406 161.183594 210.777344 161.117188 C 211.109375 161.050781 211.449219 161.015625 211.792969 161.015625 C 212.132812 161.015625 212.472656 161.050781 212.808594 161.117188 C 213.144531 161.183594 213.46875 161.28125 213.785156 161.414062 C 214.101562 161.542969 214.402344 161.703125 214.6875 161.894531 C 214.972656 162.082031 215.234375 162.296875 215.476562 162.539062 C 215.71875 162.78125 215.933594 163.042969 216.125 163.328125 C 216.316406 163.609375 216.476562 163.910156 216.605469 164.226562 C 216.738281 164.542969 216.835938 164.867188 216.902344 165.203125 C 216.96875 165.535156 217.003906 165.875 217.003906 166.214844 C 217.003906 166.558594 216.96875 166.894531 216.902344 167.230469 C 216.835938 167.566406 216.738281 167.890625 216.605469 168.207031 C 216.476562 168.519531 216.316406 168.820312 216.125 169.105469 C 215.933594 169.386719 215.71875 169.652344 215.476562 169.890625 L 204.46875 180.871094 L 193.453125 169.886719 C 193.210938 169.648438 192.996094 169.386719 192.804688 169.101562 C 192.613281 168.816406 192.453125 168.519531 192.324219 168.203125 C 192.191406 167.886719 192.09375 167.5625 192.027344 167.230469 C 191.960938 166.894531 191.925781 166.554688 191.925781 166.214844 C 191.925781 165.875 191.957031 165.535156 192.023438 165.199219 C 192.089844 164.867188 192.191406 164.539062 192.320312 164.226562 C 192.453125 163.910156 192.613281 163.609375 192.804688 163.328125 C 192.992188 163.042969 193.207031 162.78125 193.449219 162.539062 Z M 193.449219 162.539062 " fill-opacity="1" fill-rule="evenodd"/><g clip-path="url(#1df24d4148)"><path fill="#545454" d="M 240.207031 145.558594 L 185.550781 145.558594 C 185.148438 145.558594 184.761719 145.636719 184.390625 145.789062 C 184.023438 145.941406 183.695312 146.160156 183.410156 146.445312 C 183.128906 146.726562 182.910156 147.054688 182.753906 147.421875 C 182.601562 147.792969 182.523438 148.175781 182.523438 148.578125 C 182.523438 148.976562 182.601562 149.363281 182.753906 149.734375 C 182.910156 150.101562 183.128906 150.429688 183.410156 150.710938 C 183.695312 150.996094 184.023438 151.214844 184.390625 151.367188 C 184.761719 151.519531 185.148438 151.597656 185.550781 151.597656 L 236.515625 151.597656 L 228.617188 191.011719 L 179.019531 191.011719 L 170.316406 136.746094 C 170.261719 136.390625 170.144531 136.058594 169.96875 135.746094 C 169.792969 135.433594 169.566406 135.160156 169.292969 134.925781 C 169.019531 134.695312 168.714844 134.515625 168.375 134.390625 C 168.039062 134.265625 167.691406 134.207031 167.332031 134.203125 L 149.109375 134.203125 C 148.707031 134.203125 148.320312 134.28125 147.949219 134.433594 C 147.578125 134.585938 147.25 134.804688 146.96875 135.089844 C 146.683594 135.371094 146.464844 135.699219 146.3125 136.066406 C 146.160156 136.4375 146.082031 136.824219 146.082031 137.222656 C 146.082031 137.625 146.160156 138.007812 146.3125 138.378906 C 146.464844 138.75 146.683594 139.074219 146.96875 139.359375 C 147.25 139.640625 147.578125 139.859375 147.949219 140.011719 C 148.320312 140.164062 148.707031 140.242188 149.109375 140.242188 L 164.75 140.242188 L 173.453125 194.507812 C 173.507812 194.863281 173.625 195.195312 173.800781 195.511719 C 173.976562 195.824219 174.203125 196.097656 174.476562 196.328125 C 174.75 196.5625 175.058594 196.742188 175.394531 196.863281 C 175.734375 196.988281 176.082031 197.050781 176.441406 197.050781 L 231.089844 197.050781 C 231.441406 197.050781 231.78125 196.992188 232.109375 196.875 C 232.4375 196.757812 232.738281 196.585938 233.007812 196.367188 C 233.277344 196.144531 233.503906 195.886719 233.683594 195.585938 C 233.863281 195.289062 233.988281 194.96875 234.058594 194.625 L 243.175781 149.179688 C 243.21875 148.960938 243.238281 148.738281 243.234375 148.515625 C 243.230469 148.292969 243.199219 148.070312 243.148438 147.855469 C 243.09375 147.636719 243.015625 147.429688 242.914062 147.226562 C 242.816406 147.027344 242.691406 146.839844 242.550781 146.667969 C 242.410156 146.496094 242.25 146.339844 242.074219 146.199219 C 241.894531 146.0625 241.707031 145.945312 241.503906 145.851562 C 241.300781 145.753906 241.089844 145.683594 240.871094 145.632812 C 240.652344 145.582031 240.429688 145.558594 240.207031 145.558594 Z M 240.207031 145.558594 " fill-opacity="1" fill-rule="evenodd"/></g><path fill="#545454" d="M 186.121094 202.375 C 185.359375 202.375 184.605469 202.449219 183.863281 202.59375 C 183.117188 202.742188 182.394531 202.960938 181.691406 203.25 C 180.988281 203.542969 180.324219 203.898438 179.691406 204.316406 C 179.058594 204.738281 178.472656 205.21875 177.9375 205.753906 C 177.398438 206.289062 176.921875 206.871094 176.496094 207.503906 C 176.074219 208.132812 175.71875 208.796875 175.429688 209.496094 C 175.136719 210.199219 174.917969 210.921875 174.769531 211.664062 C 174.621094 212.40625 174.546875 213.15625 174.546875 213.914062 C 174.546875 214.671875 174.621094 215.421875 174.769531 216.167969 C 174.917969 216.910156 175.136719 217.632812 175.425781 218.332031 C 175.71875 219.03125 176.074219 219.695312 176.496094 220.328125 C 176.917969 220.957031 177.398438 221.539062 177.933594 222.074219 C 178.472656 222.613281 179.054688 223.089844 179.6875 223.511719 C 180.320312 223.933594 180.988281 224.289062 181.6875 224.578125 C 182.390625 224.867188 183.113281 225.085938 183.859375 225.234375 C 184.605469 225.382812 185.355469 225.457031 186.117188 225.457031 C 186.875 225.457031 187.628906 225.382812 188.375 225.234375 C 189.117188 225.085938 189.84375 224.867188 190.542969 224.578125 C 191.246094 224.289062 191.914062 223.933594 192.542969 223.511719 C 193.175781 223.089844 193.761719 222.609375 194.296875 222.074219 C 194.835938 221.539062 195.3125 220.957031 195.734375 220.324219 C 196.15625 219.695312 196.515625 219.03125 196.804688 218.328125 C 197.09375 217.628906 197.3125 216.90625 197.460938 216.164062 C 197.609375 215.421875 197.683594 214.667969 197.683594 213.910156 C 197.683594 213.152344 197.609375 212.402344 197.460938 211.660156 C 197.3125 210.917969 197.09375 210.195312 196.804688 209.496094 C 196.511719 208.796875 196.15625 208.132812 195.734375 207.503906 C 195.3125 206.871094 194.832031 206.289062 194.296875 205.753906 C 193.757812 205.21875 193.175781 204.738281 192.542969 204.320312 C 191.914062 203.898438 191.246094 203.542969 190.542969 203.253906 C 189.84375 202.964844 189.121094 202.742188 188.375 202.597656 C 187.628906 202.449219 186.878906 202.375 186.121094 202.375 Z M 186.121094 219.414062 C 185.757812 219.417969 185.398438 219.382812 185.042969 219.3125 C 184.6875 219.242188 184.34375 219.136719 184.007812 219 C 183.671875 218.859375 183.355469 218.691406 183.054688 218.492188 C 182.753906 218.289062 182.472656 218.0625 182.21875 217.804688 C 181.960938 217.550781 181.730469 217.273438 181.53125 216.972656 C 181.328125 216.671875 181.160156 216.355469 181.019531 216.019531 C 180.882812 215.6875 180.777344 215.34375 180.707031 214.988281 C 180.636719 214.632812 180.597656 214.277344 180.597656 213.914062 C 180.597656 213.554688 180.632812 213.195312 180.703125 212.839844 C 180.773438 212.488281 180.878906 212.140625 181.019531 211.808594 C 181.15625 211.472656 181.324219 211.15625 181.527344 210.855469 C 181.726562 210.554688 181.957031 210.277344 182.210938 210.023438 C 182.46875 209.765625 182.746094 209.539062 183.046875 209.335938 C 183.347656 209.136719 183.667969 208.964844 184 208.828125 C 184.335938 208.6875 184.679688 208.585938 185.035156 208.515625 C 185.390625 208.441406 185.75 208.40625 186.113281 208.40625 C 186.476562 208.40625 186.832031 208.441406 187.1875 208.511719 C 187.542969 208.582031 187.890625 208.6875 188.222656 208.824219 C 188.558594 208.964844 188.875 209.132812 189.179688 209.332031 C 189.480469 209.535156 189.757812 209.761719 190.015625 210.015625 C 190.269531 210.273438 190.5 210.550781 190.699219 210.851562 C 190.902344 211.152344 191.074219 211.46875 191.210938 211.800781 C 191.351562 212.136719 191.457031 212.480469 191.527344 212.835938 C 191.597656 213.1875 191.632812 213.546875 191.632812 213.910156 C 191.632812 214.269531 191.597656 214.628906 191.527344 214.984375 C 191.457031 215.335938 191.351562 215.679688 191.214844 216.015625 C 191.074219 216.347656 190.90625 216.667969 190.707031 216.96875 C 190.503906 217.269531 190.277344 217.546875 190.019531 217.800781 C 189.761719 218.058594 189.484375 218.285156 189.183594 218.488281 C 188.882812 218.6875 188.566406 218.859375 188.230469 218.996094 C 187.894531 219.136719 187.550781 219.242188 187.195312 219.3125 C 186.839844 219.382812 186.480469 219.417969 186.121094 219.417969 Z M 186.121094 219.414062 " fill-opacity="1" fill-rule="evenodd"/><path fill="#545454" d="M 220.277344 202.375 C 219.519531 202.375 218.765625 202.449219 218.023438 202.597656 C 217.277344 202.746094 216.554688 202.964844 215.851562 203.253906 C 215.152344 203.542969 214.484375 203.898438 213.851562 204.320312 C 213.222656 204.742188 212.636719 205.21875 212.101562 205.757812 C 211.5625 206.292969 211.082031 206.875 210.660156 207.507812 C 210.238281 208.136719 209.882812 208.800781 209.59375 209.5 C 209.304688 210.203125 209.082031 210.921875 208.9375 211.667969 C 208.789062 212.410156 208.714844 213.160156 208.714844 213.917969 C 208.714844 214.675781 208.789062 215.425781 208.9375 216.171875 C 209.085938 216.914062 209.304688 217.636719 209.597656 218.335938 C 209.886719 219.035156 210.242188 219.699219 210.664062 220.332031 C 211.089844 220.960938 211.566406 221.542969 212.105469 222.078125 C 212.640625 222.613281 213.226562 223.09375 213.859375 223.511719 C 214.488281 223.933594 215.15625 224.289062 215.859375 224.578125 C 216.5625 224.871094 217.285156 225.089844 218.027344 225.234375 C 218.773438 225.382812 219.527344 225.457031 220.285156 225.457031 C 221.046875 225.457031 221.796875 225.382812 222.542969 225.234375 C 223.289062 225.085938 224.011719 224.867188 224.710938 224.578125 C 225.414062 224.285156 226.082031 223.929688 226.710938 223.507812 C 227.34375 223.089844 227.929688 222.609375 228.464844 222.074219 C 229 221.539062 229.480469 220.953125 229.902344 220.324219 C 230.324219 219.695312 230.679688 219.027344 230.972656 218.328125 C 231.261719 217.628906 231.480469 216.90625 231.628906 216.164062 C 231.777344 215.421875 231.851562 214.667969 231.851562 213.910156 C 231.851562 213.152344 231.777344 212.402344 231.628906 211.660156 C 231.480469 210.917969 231.257812 210.195312 230.96875 209.496094 C 230.679688 208.796875 230.320312 208.128906 229.898438 207.5 C 229.476562 206.871094 228.996094 206.289062 228.460938 205.75 C 227.921875 205.214844 227.339844 204.738281 226.707031 204.316406 C 226.074219 203.894531 225.40625 203.539062 224.707031 203.25 C 224.003906 202.960938 223.28125 202.742188 222.535156 202.59375 C 221.789062 202.445312 221.039062 202.375 220.277344 202.375 Z M 220.277344 219.414062 C 219.917969 219.414062 219.558594 219.378906 219.203125 219.308594 C 218.847656 219.238281 218.503906 219.132812 218.167969 218.996094 C 217.835938 218.859375 217.515625 218.6875 217.214844 218.488281 C 216.914062 218.285156 216.636719 218.058594 216.378906 217.804688 C 216.125 217.546875 215.894531 217.269531 215.695312 216.96875 C 215.492188 216.667969 215.324219 216.351562 215.183594 216.019531 C 215.046875 215.683594 214.941406 215.339844 214.871094 214.984375 C 214.800781 214.632812 214.765625 214.273438 214.765625 213.910156 C 214.765625 213.550781 214.800781 213.191406 214.871094 212.835938 C 214.941406 212.484375 215.046875 212.140625 215.1875 211.804688 C 215.324219 211.472656 215.496094 211.152344 215.695312 210.855469 C 215.898438 210.554688 216.125 210.273438 216.382812 210.019531 C 216.636719 209.765625 216.917969 209.535156 217.21875 209.335938 C 217.519531 209.132812 217.835938 208.964844 218.171875 208.828125 C 218.507812 208.6875 218.851562 208.582031 219.207031 208.511719 C 219.5625 208.441406 219.921875 208.40625 220.28125 208.40625 C 220.644531 208.40625 221.003906 208.441406 221.359375 208.511719 C 221.714844 208.582031 222.058594 208.6875 222.394531 208.824219 C 222.726562 208.964844 223.046875 209.132812 223.347656 209.335938 C 223.648438 209.535156 223.925781 209.761719 224.183594 210.019531 C 224.4375 210.273438 224.667969 210.550781 224.867188 210.851562 C 225.070312 211.152344 225.238281 211.46875 225.378906 211.800781 C 225.515625 212.136719 225.621094 212.480469 225.691406 212.835938 C 225.765625 213.1875 225.800781 213.546875 225.800781 213.910156 C 225.800781 214.269531 225.765625 214.628906 225.695312 214.984375 C 225.625 215.339844 225.519531 215.683594 225.378906 216.015625 C 225.242188 216.351562 225.070312 216.667969 224.871094 216.96875 C 224.667969 217.269531 224.441406 217.550781 224.183594 217.804688 C 223.925781 218.0625 223.648438 218.289062 223.347656 218.492188 C 223.046875 218.691406 222.726562 218.863281 222.390625 219 C 222.058594 219.136719 221.710938 219.242188 221.355469 219.3125 C 221 219.382812 220.640625 219.417969 220.277344 219.417969 Z M 220.277344 219.414062 " fill-opacity="1" fill-rule="evenodd"/></svg>